<?xml version="1.0" encoding="UTF-8"?>
<svg xmlns="http://www.w3.org/2000/svg" viewBox="0 0 463.07 461.55">
  <defs>
    <style>
      .cls-1 {
        fill: #f0f0f0;
      }

      .cls-2, .cls-3, .cls-4, .cls-5 {
        fill: #fff;
      }

      .cls-6, .cls-7 {
        fill: #fafafa;
      }

      .cls-8 {
        opacity: .5;
      }

      .cls-9 {
        fill: #37474f;
      }

      .cls-3, .cls-10 {
        opacity: .4;
      }

      .cls-11 {
        fill: #f5f5f5;
      }

      .cls-4, .cls-12 {
        opacity: .3;
      }

      .cls-13, .cls-14 {
        fill: #455a64;
      }

      .cls-15 {
        opacity: .2;
      }

      .cls-16 {
        fill: #f28f8f;
      }

      .cls-17 {
        fill: #e0e0e0;
      }

      .cls-5 {
        opacity: .7;
      }

      .cls-18 {
        opacity: .15;
      }

      .cls-19 {
        fill: #27debf;
      }

      .cls-7, .cls-14 {
        opacity: .8;
      }

      .cls-20 {
        opacity: .1;
      }

      .cls-21 {
        fill: #ebebeb;
      }

      .cls-22 {
        fill: #263238;
      }

      .cls-23 {
        fill: #ffa8a7;
      }
    </style>
  </defs>
  <g id="Floor">
    <ellipse id="Floor-2" data-name="Floor" class="cls-1" cx="231.54" cy="327.87" rx="231.54" ry="133.68"/>
  </g>
  <g id="Shadows">
    <path id="Shadow" class="cls-17" d="m305.63,363.11c.07-2.09-.65-4.45-1.85-6.5,0,0,0,0,0,0-.25-.42-.51-.83-.79-1.22-.01-.02-.03-.04-.04-.06-.27-.37-.56-.73-.87-1.06-.03-.03-.05-.06-.08-.09-.3-.32-.61-.63-.94-.91-.03-.02-.06-.05-.09-.07-.33-.28-.68-.54-1.03-.76-.2-.13-.4-.24-.6-.34-.09-.05-.18-.08-.27-.12-.1-.05-.21-.1-.31-.14-.15-.06-.3-.1-.44-.14-.04-.01-.08-.03-.12-.04-.17-.05-.35-.08-.51-.1-.01,0-.02,0-.03,0-.71-.09-1.36.01-1.91.29,0,0,0,0,0,0h0s0,0-.01,0h0c-5.29,2.65-35.77,22.04-49.8,30.79l-6.95,4.22c-.2.11-.37.28-.51.49-.02.02-.04.05-.05.08-.06.09-.11.19-.16.3-.03.07-.05.14-.07.21-.03.09-.06.17-.08.27-.01.06-.02.12-.03.18-.32.17-.71.39-1.15.63l-1.03.56c-2.2-2.12-4.85-4.1-7.93-5.88-9.62-5.55-22.36-8.61-35.88-8.61s-26.26,3.06-35.88,8.61c-9.96,5.75-15.45,13.52-15.45,21.87s5.49,16.12,15.45,21.87c9.62,5.55,22.36,8.61,35.88,8.61s26.26-3.06,35.88-8.61c9.96-5.75,15.45-13.52,15.45-21.87,0-3.77-1.12-7.41-3.26-10.81l.92-.5c.76.42,1.45.47,1.97.19l.04-.02c4.76-2.62,51.16-22.4,60.65-27.48,0,0,0,0,0,0,0,0,0,0,0,0h0c1.11-.6,1.83-1.93,1.89-3.85Zm-82.05,56.74c-8.3,4.79-19.49,7.43-31.49,7.43s-23.19-2.64-31.49-7.43c-7.13-4.12-11.06-9.19-11.06-14.27s3.93-10.16,11.06-14.27c8.3-4.79,19.49-7.43,31.49-7.43s23.19,2.64,31.49,7.43c7.13,4.12,11.06,9.19,11.06,14.27s-3.93,10.15-11.06,14.27Z"/>
    <path id="Shadow-2" data-name="Shadow" class="cls-17" d="m312.71,245.64l-47.07-27.23c-2.39-1.38-6.27-1.38-8.66,0L17.9,356.45c-2.39,1.38-2.39,3.62,0,5l47.07,27.23c2.39,1.38,6.27,1.38,8.66,0l89.6-51.73,13.77,8.01c7.29,4.21,19.12,4.21,26.41,0l41.06-23.53c7.29-4.21,7.29-11.03,0-15.24l-13.76-8,82.01-47.54c2.39-1.38,2.39-3.62,0-5Z"/>
    <ellipse id="Shadow-3" data-name="Shadow" class="cls-17" cx="391.67" cy="347.89" rx="46.15" ry="26.65"/>
  </g>
  <g id="Plant">
    <g id="Plants">
      <g>
        <path class="cls-19" d="m417.89,317.81c0-6.25-1.24-17.76,4.05-28.56,3.83-7.82,10.69-15.43,17.06-14.67,5.94.7,6.48,9.83.8,16.08-5.68,6.25-12.91,14.89-14.48,28.71l-4.09,10.25-3.34-11.82Z"/>
        <g class="cls-15">
          <path d="m417.89,317.81c0-6.25-1.24-17.76,4.05-28.56,3.83-7.82,10.69-15.43,17.06-14.67,5.94.7,6.48,9.83.8,16.08-5.68,6.25-12.91,14.89-14.48,28.71l-4.09,10.25-3.34-11.82Z"/>
        </g>
        <path class="cls-2" d="m420.02,322.2c.21-.04.37-.23.36-.44-.72-17.76,5.06-32.51,16.72-42.64.18-.16.2-.43.04-.61-.16-.18-.43-.2-.61-.04-11.86,10.31-17.75,25.3-17.02,43.33.01.24.21.43.45.42.02,0,.04,0,.06,0Z"/>
      </g>
      <g>
        <path class="cls-19" d="m416.76,340.14s4.3,2.9,10.99,3.06c6.68.16,9.15-3.36,9.15-3.36,0,0-3.4-5.79-7.35-7.02,0,0,6.47.44,11.99,3.14,0,0,4.01-.48,4.78-6.79,0,0-2.86-3.35-11.07-4.27,0,0,4.67-1.86,11.88-1.02.55.14,1.72-8.05,1.91-11.78.19-3.73-1.27-3.49-4.21-3.87-2.94-.38-12.66.44-14.23,2.24-1.57,1.8-1.75,7.25-1.75,7.25,0,0-2.1-2.79-2.06-5.54,0,0-2.98-.58-6.02.95-3.04,1.54-4.01,2.77-4.16,5.1-.15,2.33-.35,5.82.59,8.53,0,0-2.77-4.46-2.63-8.35,0,0-1.52,2.51-2.83,5.91-1.31,3.4.24,11.63,5.03,15.8Z"/>
        <path class="cls-2" d="m416.87,340.56c.14-.04.25-.14.3-.28,3.8-11.67,21.71-27.03,28.55-29.34.23-.08.35-.32.27-.55-.08-.23-.31-.36-.55-.27-6.97,2.35-25.22,18.01-29.1,29.89-.07.23.05.47.28.55.08.03.17.03.25,0Z"/>
      </g>
    </g>
  </g>
  <g id="Device">
    <g id="Device-2" data-name="Device">
      <g id="Monitor">
        <g>
          <path class="cls-9" d="m203.41,340.98l35.37-20.45c3.65-2.11,5.47-4.86,5.47-7.62,0-2.76.02-4.92.02-4.92l-33.29-18.89c-1.94-1.12-3.52-3.85-3.52-6.1v-43.61l-61.79,35.7v43.61c0,2.25,1.57,4.98,3.52,6.1l27.81,16.19c7.29,4.21,19.12,4.21,26.41,0Z"/>
          <path class="cls-22" d="m160.51,326.42v4.9l-11.32-6.53c-1.93-1.12-3.52-3.84-3.52-6.1v-43.61l11.77-6.79c.24,2.99.51,6.08.75,9.09l-8.25,4.78v34.07c0,2.26,1.57,4.98,3.52,6.1l7.05,4.09Z"/>
          <path class="cls-13" d="m149.94,316.24c0,2.25,1.58,4.98,3.52,6.1l23.54,13.72c7.29,4.21,19.12,4.21,26.41,0l35.39-20.45c7.29-4.21,7.29-11.03,0-15.24l-23.56-13.73c-1.95-1.12-3.52-3.85-3.52-6.1v-34.08s-61.79,35.7-61.79,35.7v34.08Z"/>
          <path class="cls-18" d="m222.42,290.78h0s-7.17-4.15-7.17-4.15c-1.95-1.12-3.52-3.85-3.52-6.1v-34.08l-61.79,35.7v34.08c0,2.25,1.58,4.98,3.52,6.1l7.05,4.07,61.91-35.63Z"/>
          <path class="cls-9" d="m244.26,307.99v4.92c0,2.76-1.83,5.51-5.47,7.62l-35.38,20.44c-3.5,2.03-8.03,3.05-12.6,3.13v-4.9c4.57-.06,9.11-1.12,12.6-3.13l35.38-20.46c3.64-2.09,5.47-4.86,5.47-7.62Z"/>
        </g>
        <path class="cls-13" d="m50.73,363.29c2.28,1.32,6.1,1.25,8.53-.16,30.38-17.54,208.58-120.42,238.95-137.95,2.43-1.4,4.4-4.82,4.4-7.62V8.41c0-2.81-1.85-6.15-4.13-7.47-2.28-1.32-6.1-1.25-8.53.16L51.01,139.05c-2.43,1.4-4.4,4.82-4.4,7.62v209.15c0,2.81,1.85,6.15,4.13,7.47Z"/>
        <path class="cls-9" d="m59.26,363.13l238.95-137.95c2.43-1.4,4.4-4.82,4.4-7.62V8.4c0-2.81-1.97-3.94-4.4-2.54L59.27,143.82c-2.43,1.4-4.4,4.82-4.4,7.62v209.15c0,2.81,1.97,3.94,4.4,2.54Z"/>
        <path class="cls-19" d="m63.12,332.96v-178.78c0-1.68,1.18-3.73,2.64-4.57L291.71,19.16c1.46-.84,2.64-.16,2.64,1.52v178.78c0,1.68-1.17,3.73-2.63,4.57l-225.96,130.45c-1.46.84-2.64.16-2.64-1.52Z"/>
        <path class="cls-5" d="m63.12,332.96v-178.78c0-1.68,1.18-3.73,2.64-4.57L291.71,19.16c1.46-.84,2.64-.16,2.64,1.52v178.78c0,1.68-1.17,3.73-2.63,4.57l-225.96,130.45c-1.46.84-2.64.16-2.64-1.52Z"/>
        <path class="cls-19" d="m178.28,285.69c-.48,0-.93-.11-1.32-.34-.94-.54-1.46-1.65-1.46-3.11,0-2.84,1.92-6.17,4.38-7.59h0c1.27-.73,2.48-.83,3.42-.29.94.54,1.46,1.65,1.46,3.11,0,2.84-1.92,6.17-4.38,7.59-.73.42-1.44.63-2.1.63Zm3.69-10.67c-.48,0-1.02.17-1.59.5h0c-2.14,1.23-3.88,4.25-3.88,6.72,0,1.09.34,1.88.96,2.24.62.36,1.48.25,2.42-.29,2.14-1.24,3.88-4.25,3.88-6.72,0-1.09-.34-1.88-.96-2.24-.24-.14-.52-.21-.83-.21Z"/>
      </g>
    </g>
  </g>
  <g id="Window">
    <g id="Window-2" data-name="Window">
      <g>
        <g>
          <path class="cls-1" d="m333.6,52.8L100.89,187v171.51c0,2.28,2.47,3.72,4.45,2.58l4.15-2.39,219.77-126.72c2.39-1.38,4.34-4.74,4.34-7.51V52.8Z"/>
          <path class="cls-17" d="m332.6,54.53v169.93c0,2.4-1.76,5.44-3.84,6.65l-219.77,126.72-4.15,2.39c-.31.18-.63.27-.97.27-.5,0-1.01-.2-1.38-.56-.39-.37-.6-.87-.6-1.42v-170.94S332.6,54.53,332.6,54.53m1-1.73L100.89,187v171.51c0,1.73,1.43,2.98,2.98,2.98.49,0,1-.13,1.47-.4l4.15-2.39,219.77-126.72c2.39-1.38,4.34-4.74,4.34-7.51V52.8h0Z"/>
        </g>
        <polygon class="cls-14" points="328.08 49.61 95.35 183.8 100.89 187 333.6 52.8 328.08 49.61"/>
        <path class="cls-21" d="m102.45,361.13s-1.56-.76-1.56-2.62v-166.57c0-1.37,0-4.94,0-4.94l-5.53-3.19v170.57c0,.21,0,.42.04.63.2,1.41,1.03,2.66,2.26,3.36l4.57,2.64.22.13h0Z"/>
      </g>
      <g>
        <g>
          <path class="cls-19" d="m95.35,183.88v-11.57c0-1.38.97-3.06,2.16-3.76L325.92,36.87c1.19-.7,3.13-.7,4.32-.01l1.19.69c1.2.69,2.17,2.37,2.17,3.75v11.59S100.89,187.07,100.89,187.07l-5.53-3.19Z"/>
          <path class="cls-12" d="m95.35,183.88v-11.57c0-1.38.97-3.06,2.16-3.76L325.92,36.87c1.19-.7,3.13-.7,4.32-.01l1.19.69c1.2.69,2.17,2.37,2.17,3.75v11.59S100.89,187.07,100.89,187.07l-5.53-3.19Z"/>
          <path class="cls-19" d="m100.89,175.5c0-1.38.97-3.06,2.16-3.76L331.44,40.06c1.19-.7,2.16-.14,2.16,1.24v11.59S100.89,187.07,100.89,187.07v-11.57Z"/>
          <path class="cls-10" d="m100.89,175.5c0-1.38.97-3.06,2.16-3.76L331.44,40.06c1.19-.7,2.16-.14,2.16,1.24v11.59S100.89,187.07,100.89,187.07v-11.57Z"/>
          <path class="cls-19" d="m101.52,173.36c-.39.68-.63,1.45-.63,2.14v11.57l-5.53-3.19v-11.58c0-.69.24-1.45.63-2.13l5.53,3.19Z"/>
          <path class="cls-8" d="m101.52,173.36c-.39.68-.63,1.45-.63,2.14v11.57l-5.53-3.19v-11.58c0-.69.24-1.45.63-2.13l5.53,3.19Z"/>
        </g>
        <g>
          <path class="cls-6" d="m323.44,52.36c0,1.3.91,1.82,2.03,1.17s2.03-2.22,2.03-3.52-.91-1.82-2.03-1.17-2.03,2.22-2.03,3.52Z"/>
          <path class="cls-6" d="m315.32,57.05c0,1.3.91,1.82,2.03,1.17s2.03-2.22,2.03-3.52-.91-1.82-2.03-1.17-2.03,2.22-2.03,3.52Z"/>
          <path class="cls-6" d="m307.2,61.74c0,1.3.91,1.82,2.03,1.17s2.03-2.22,2.03-3.52-.91-1.82-2.03-1.17-2.03,2.22-2.03,3.52Z"/>
        </g>
      </g>
      <g>
        <path class="cls-6" d="m100.89,187.07v171.44c0,2.28,2.47,3.72,4.45,2.58l4.15-2.39,50.85-29.32v-176.58l-59.45,34.28h0Z"/>
        <polygon class="cls-6" points="164.4 155.68 164.4 322.2 328.72 227.33 328.72 60.82 164.4 155.68"/>
        <g>
          <path class="cls-19" d="m146.73,172.91l-37.93,21.92c-.7.41-1.27,1.39-1.27,2.2v3.95c0,.81.57,1.14,1.27.73l37.93-21.92c.7-.41,1.27-1.39,1.27-2.2v-3.95c0-.81-.57-1.14-1.27-.73Z"/>
          <path class="cls-7" d="m146.73,172.91l-37.93,21.92c-.7.41-1.27,1.39-1.27,2.2v3.95c0,.81.57,1.14,1.27.73l37.93-21.92c.7-.41,1.27-1.39,1.27-2.2v-3.95c0-.81-.57-1.14-1.27-.73Z"/>
          <path class="cls-13" d="m155.18,174.48l-1.12-1.08c.22-.56.36-1.18.36-1.79,0-.91-.3-1.61-.84-1.92-.4-.23-.89-.21-1.36.06-.98.57-1.76,2.16-1.76,3.63,0,.91.3,1.61.84,1.92.19.11.39.16.6.16.25,0,.51-.07.76-.22.37-.21.71-.57.99-1.02l.92.88c.08.08.19.12.3.12.12,0,.23-.05.32-.13.17-.18.16-.45-.01-.62Zm-2.96,0c-.19.11-.36.13-.48.06-.18-.11-.4-.47-.4-1.16,0-1.14.6-2.46,1.32-2.87.12-.07.22-.1.32-.1.06,0,.11.01.16.04.18.11.4.47.4,1.16,0,1.14-.6,2.46-1.32,2.87Z"/>
        </g>
        <g>
          <g>
            <g>
              <path class="cls-13" d="m108.46,213.29l-.85.49c-.05.03-.09,0-.09-.07v-2.3c0-.07.04-.14.09-.17l.85-.49c.05-.03.09,0,.09.07v2.3c0,.07-.04.14-.09.17Z"/>
              <path class="cls-13" d="m109.73,212.56l-.85.49c-.05.03-.09,0-.09-.07v-2.3c0-.07.04-.14.09-.17l.85-.49c.05-.03.09,0,.09.07v2.3c0,.07-.04.14-.09.17Z"/>
              <path class="cls-13" d="m111.01,211.82l-.85.49c-.05.03-.09,0-.09-.07v-2.3c0-.07.04-.14.09-.17l.85-.49c.05-.03.09,0,.09.07v2.3c0,.07-.04.14-.09.17Z"/>
              <path class="cls-13" d="m108.46,216.26l-.85.49c-.05.03-.09,0-.09-.07v-2.3c0-.07.04-.14.09-.17l.85-.49c.05-.03.09,0,.09.07v2.3c0,.07-.04.14-.09.17Z"/>
              <path class="cls-13" d="m109.73,215.53l-.85.49c-.05.03-.09,0-.09-.07v-2.3c0-.07.04-.14.09-.17l.85-.49c.05-.03.09,0,.09.07v2.3c0,.07-.04.14-.09.17Z"/>
              <path class="cls-13" d="m111.01,214.79l-.85.49c-.05.03-.09,0-.09-.07v-2.3c0-.07.04-.14.09-.17l.85-.49c.05-.03.09,0,.09.07v2.3c0,.07-.04.14-.09.17Z"/>
            </g>
            <g>
              <path class="cls-13" d="m108.59,224.11l-1.05-.64s-.04-.12,0-.19l1.05-1.85c.05-.09.12-.08.12.02v2.49c0,.1-.07.2-.12.17Z"/>
              <g>
                <path class="cls-13" d="m108.15,222.7l1.38-.8v.66l-1.38.8c-.12.07-.21-.02-.21-.2s.1-.38.21-.45Z"/>
                <polygon class="cls-13" points="109.79 221.76 110.26 221.48 110.26 222.14 109.79 222.41 109.79 221.76"/>
                <path class="cls-13" d="m111.53,221.08v2.41c0,.18-.1.38-.21.45-.12.07-.21-.02-.21-.2v-2.08l-.58.34v-.66l.8-.46c.12-.07.21.02.21.2Z"/>
              </g>
            </g>
            <g>
              <path class="cls-13" d="m109,229.51c-.98.67-1.64,2.53-1.45,3.9.17,1.26.92,1.21,1,1.79,0,.06.05.09.1.06l.93-.53s.09-.1.1-.17c.1-.77,1.05-1.7,1.06-3.56,0-1.43-.78-2.14-1.73-1.48Z"/>
              <path class="cls-13" d="m109.56,236.24l-.9.52c-.06.04-.11,0-.11-.08v-.83c0-.08.05-.18.11-.21l.9-.52c.06-.04.11,0,.11.08v.83c0,.08-.05.18-.11.21Z"/>
            </g>
            <path class="cls-13" d="m109.22,210.06c-.83.68-1.5,2.1-1.63,3.45-.08.79.02,1.43.24,1.89l-.3,1.57c-.02.13.05.2.12.12l.91-.99c.38.12.83.01,1.32-.39.83-.69,1.5-2.1,1.63-3.46.21-2.2-.93-3.31-2.28-2.2Zm.33,5.16c-.83.48-1.51-.17-1.51-1.46s.68-2.72,1.51-3.2c.83-.48,1.51.17,1.51,1.46s-.68,2.72-1.51,3.2Z"/>
            <path class="cls-13" d="m109.22,240.41c-.83.68-1.5,2.1-1.63,3.45-.08.79.02,1.43.24,1.89l-.3,1.57c-.02.13.05.2.12.12l.91-.99c.38.12.83.01,1.32-.39.83-.69,1.5-2.1,1.63-3.46.21-2.2-.93-3.31-2.28-2.2Zm.33,5.16c-.83.48-1.51-.17-1.51-1.46s.68-2.72,1.51-3.2,1.51.17,1.51,1.46-.68,2.72-1.51,3.2Z"/>
            <g>
              <path class="cls-13" d="m110.5,251.53c0,.68-.36,1.44-.8,1.69-.44.25-.8-.09-.8-.77s.36-1.44.8-1.69c.44-.25.8.09.8.77Z"/>
              <path class="cls-13" d="m111.87,251.77c0,.45-.24.96-.53,1.13-.29.17-.53-.06-.53-.51s.24-.96.53-1.13c.29-.17.53.06.53.51Z"/>
              <path class="cls-13" d="m110.64,256.37l-1.89,1.09v-2.39c0-.5.31-1.09.68-1.3l.52-.3c.38-.22.68.01.68.52v2.39Z"/>
              <path class="cls-13" d="m111.42,253.17l-.52.3v2.75l.98-.57v-2.14c0-.34-.21-.49-.46-.35Z"/>
              <path class="cls-13" d="m107.53,254.28c0,.45.24.68.53.51.29-.17.53-.67.53-1.13s-.24-.68-.53-.51c-.29.17-.53.67-.53,1.13Z"/>
              <path class="cls-13" d="m107.98,255.16l.52-.3v2.75l-.98.57v-2.14c0-.34.21-.73.46-.88Z"/>
            </g>
          </g>
          <g>
            <path class="cls-17" d="m116.74,207.9l22.21-12.82c.6-.35,1.08-.1,1.08.55,0,.65-.48,1.45-1.08,1.8l-22.21,12.82c-.6.35-1.08.1-1.08-.55s.48-1.45,1.08-1.8Z"/>
            <path class="cls-17" d="m116.74,218.35l22.21-12.82c.6-.35,1.08-.1,1.08.55,0,.65-.48,1.45-1.08,1.8l-22.21,12.82c-.6.35-1.08.1-1.08-.55s.48-1.45,1.08-1.8Z"/>
            <path class="cls-17" d="m116.74,228.8l22.21-12.82c.6-.35,1.08-.1,1.08.55,0,.65-.48,1.45-1.08,1.8l-22.21,12.82c-.6.35-1.08.1-1.08-.55s.48-1.45,1.08-1.8Z"/>
            <path class="cls-17" d="m116.74,239.26l22.21-12.82c.6-.35,1.08-.1,1.08.55,0,.65-.48,1.45-1.08,1.8l-22.21,12.82c-.6.35-1.08.1-1.08-.55s.48-1.45,1.08-1.8Z"/>
            <path class="cls-17" d="m116.74,249.71l22.21-12.82c.6-.35,1.08-.1,1.08.55,0,.65-.48,1.45-1.08,1.8l-22.21,12.82c-.6.35-1.08.1-1.08-.55s.48-1.45,1.08-1.8Z"/>
            <path class="cls-13" d="m120.8,258.24l22.21-12.82c.6-.35,1.08-.1,1.08.55,0,.65-.48,1.45-1.08,1.8l-22.21,12.82c-.6.35-1.08.1-1.08-.55s.48-1.45,1.08-1.8Z"/>
            <path class="cls-17" d="m120.8,265.31l22.21-12.82c.6-.35,1.08-.1,1.08.55,0,.65-.48,1.45-1.08,1.8l-22.21,12.82c-.6.35-1.08.1-1.08-.55s.48-1.45,1.08-1.8Z"/>
            <path class="cls-17" d="m120.8,272.37l22.21-12.82c.6-.35,1.08-.1,1.08.55,0,.65-.48,1.45-1.08,1.8l-22.21,12.82c-.6.35-1.08.1-1.08-.55s.48-1.45,1.08-1.8Z"/>
            <path class="cls-17" d="m125.13,276.85l22.21-12.82c.6-.35,1.08-.1,1.08.55,0,.65-.48,1.45-1.08,1.8l-22.21,12.82c-.6.35-1.08.1-1.08-.55s.48-1.45,1.08-1.8Z"/>
            <path class="cls-13" d="m119.93,282.93l1.8-3.18c.07-.12.07-.28,0-.32l-1.8-1.1c-.09-.05-.21.12-.21.28v4.28c0,.17.13.19.21.04Z"/>
            <path class="cls-17" d="m125.13,283.89l22.21-12.82c.6-.35,1.08-.1,1.08.55,0,.65-.48,1.45-1.08,1.8l-22.21,12.82c-.6.35-1.08.1-1.08-.55s.48-1.45,1.08-1.8Z"/>
            <path class="cls-13" d="m119.93,289.97l1.8-3.18c.07-.12.07-.28,0-.32l-1.8-1.1c-.09-.05-.21.12-.21.28v4.28c0,.17.13.19.21.04Z"/>
            <path class="cls-17" d="m125.13,290.93l22.21-12.82c.6-.35,1.08-.1,1.08.55,0,.65-.48,1.45-1.08,1.8l-22.21,12.82c-.6.35-1.08.1-1.08-.55s.48-1.45,1.08-1.8Z"/>
            <path class="cls-13" d="m119.93,297l1.8-3.18c.07-.12.07-.28,0-.32l-1.8-1.1c-.09-.05-.21.12-.21.28v4.28c0,.17.13.19.21.04Z"/>
            <path class="cls-17" d="m125.13,297.96l22.21-12.82c.6-.35,1.08-.1,1.08.55,0,.65-.48,1.45-1.08,1.8l-22.21,12.82c-.6.35-1.08.1-1.08-.55s.48-1.45,1.08-1.8Z"/>
            <path class="cls-13" d="m119.93,304.04l1.8-3.18c.07-.12.07-.28,0-.32l-1.8-1.1c-.09-.05-.21.12-.21.28v4.28c0,.17.13.19.21.04Z"/>
            <path class="cls-17" d="m125.13,305l22.21-12.82c.6-.35,1.08-.1,1.08.55,0,.65-.48,1.45-1.08,1.8l-22.21,12.82c-.6.35-1.08.1-1.08-.55s.48-1.45,1.08-1.8Z"/>
            <path class="cls-13" d="m119.93,311.08l1.8-3.18c.07-.12.07-.28,0-.32l-1.8-1.1c-.09-.05-.21.12-.21.28v4.28c0,.17.13.19.21.04Z"/>
            <path class="cls-17" d="m125.13,312.04l22.21-12.82c.6-.35,1.08-.1,1.08.55,0,.65-.48,1.45-1.08,1.8l-22.21,12.82c-.6.35-1.08.1-1.08-.55s.48-1.45,1.08-1.8Z"/>
            <path class="cls-13" d="m119.93,318.11l1.8-3.18c.07-.12.07-.28,0-.32l-1.8-1.1c-.09-.05-.21.12-.21.28v4.28c0,.17.13.19.21.04Z"/>
            <path class="cls-17" d="m125.13,319.07l22.21-12.82c.6-.35,1.08-.1,1.08.55,0,.65-.48,1.45-1.08,1.8l-22.21,12.82c-.6.35-1.08.1-1.08-.55s.48-1.45,1.08-1.8Z"/>
            <path class="cls-13" d="m119.93,325.15l1.8-3.18c.07-.12.07-.28,0-.32l-1.8-1.1c-.09-.05-.21.12-.21.28v4.28c0,.17.13.19.21.04Z"/>
            <path class="cls-17" d="m125.13,326.11l22.21-12.82c.6-.35,1.08-.1,1.08.55,0,.65-.48,1.45-1.08,1.8l-22.21,12.82c-.6.35-1.08.1-1.08-.55s.48-1.45,1.08-1.8Z"/>
            <path class="cls-13" d="m119.93,332.19l1.8-3.18c.07-.12.07-.28,0-.32l-1.8-1.1c-.09-.05-.21.12-.21.28v4.28c0,.17.13.19.21.04Z"/>
          </g>
        </g>
        <g>
          <g>
            <path class="cls-1" d="m169.55,178.52l72.99-42.14c.6-.35,1.08-1.18,1.08-1.88v-18.61c0-.69-.48-.97-1.08-.63l-72.99,42.13c-.6.35-1.08,1.18-1.08,1.87v18.62c0,.69.48.97,1.08.62Z"/>
            <g>
              <g>
                <path class="cls-13" d="m175.91,165.39s0-.02,0-.04l.48-2-.66.38s-.03,0-.04,0c-.01-.01-.02-.03-.02-.06v-.36s0-.05.02-.08c.01-.03.03-.04.04-.05l1.06-.61s.03,0,.04,0c.01.01.02.03.02.06v.32s-.01.1-.04.19l-.48,2s-.01.05-.02.07c0,.02-.02.04-.04.05l-.31.18s-.03,0-.04,0c-.01-.01-.02-.03-.02-.05Z"/>
                <path class="cls-13" d="m177.68,162.02c.11-.06.21-.09.29-.09.08,0,.15.03.2.09.05.05.09.13.12.23.03.1.04.21.04.33,0,.1,0,.2,0,.31s0,.21,0,.3c0,.13-.02.25-.04.38-.03.13-.07.25-.12.36-.05.11-.12.22-.2.32-.08.1-.18.18-.29.24-.11.06-.21.09-.29.09-.08,0-.15-.03-.2-.09-.05-.05-.09-.13-.12-.23-.03-.1-.04-.21-.05-.33,0-.09,0-.19,0-.3s0-.21,0-.31c0-.13.02-.25.05-.38.03-.13.06-.25.12-.36.05-.12.12-.22.2-.32.08-.1.18-.18.29-.24Zm.24,1.38c0-.2,0-.39,0-.57,0-.06,0-.1-.02-.15,0-.04-.02-.08-.04-.1s-.04-.04-.07-.04c-.03,0-.07,0-.11.03-.04.03-.08.06-.11.09-.03.04-.05.08-.07.12-.02.05-.03.09-.04.15,0,.05-.01.11-.01.17,0,.19,0,.38,0,.57,0,.06,0,.11.01.15,0,.04.02.08.04.1.02.02.04.04.07.04.03,0,.07,0,.11-.03.04-.03.08-.06.11-.09.03-.04.05-.08.07-.13.02-.05.03-.1.04-.15,0-.05.01-.11.01-.17Z"/>
                <path class="cls-13" d="m179.22,161.64c0,.09,0,.18,0,.26,0,.07-.01.14-.03.2-.01.07-.04.13-.06.19-.03.06-.07.12-.11.17-.04.05-.09.09-.15.12s-.11.05-.15.05c-.04,0-.08-.02-.11-.04-.03-.03-.05-.07-.06-.12-.02-.05-.02-.11-.03-.17,0-.04,0-.09,0-.13s0-.08,0-.13c0-.07.01-.14.03-.21.01-.07.04-.13.06-.19.03-.06.06-.12.11-.17.04-.05.09-.09.15-.12s.11-.05.15-.05c.04,0,.08.01.11.04.03.03.05.07.07.12.01.05.02.11.03.17Zm.55-.72s.02-.05.03-.07c.01-.02.03-.03.05-.04l.18-.11s.03,0,.04,0c0,0,.01.02.01.04,0,0,0,.01,0,.02,0,0,0,.02,0,.02l-1.1,2.85s-.02.05-.03.07c-.01.02-.03.03-.05.04l-.18.1s-.03.01-.04,0c0,0-.01-.02-.01-.04,0,0,0-.01,0-.02,0,0,0-.02,0-.02l1.1-2.85Zm-.99,1.22c0,.06.01.1.02.12.01.02.04.02.07,0,.03-.02.05-.05.07-.08.01-.04.02-.09.02-.15,0-.08,0-.15,0-.23,0-.06-.01-.1-.02-.12-.01-.02-.03-.02-.07,0-.03.02-.05.05-.07.08-.01.04-.02.09-.02.15,0,.08,0,.15,0,.23Zm1.47.11c0,.09,0,.18,0,.26,0,.07-.01.14-.03.2-.01.07-.04.13-.06.19-.03.06-.06.12-.11.17-.04.05-.09.09-.15.12-.06.03-.11.05-.15.05s-.08-.01-.11-.04c-.03-.03-.05-.07-.06-.12-.01-.05-.02-.11-.03-.17,0-.04,0-.09,0-.12s0-.09,0-.13c0-.07.01-.14.03-.2.02-.07.04-.13.06-.19.03-.06.06-.12.11-.16.04-.05.09-.09.15-.13.06-.03.11-.05.15-.05.04,0,.08.01.11.04.03.03.05.07.06.12.01.05.02.11.03.17Zm-.44.5c0,.06.01.1.02.12.01.02.03.02.07,0,.03-.02.05-.05.07-.08.01-.04.02-.09.02-.15,0-.08,0-.15,0-.23,0-.06-.01-.1-.02-.12-.01-.02-.04-.02-.07,0-.03.02-.06.05-.07.08-.01.04-.02.09-.02.15,0,.08,0,.15,0,.23Z"/>
              </g>
              <g>
                <path class="cls-13" d="m175.9,159.66l-.73-1.13c-.8,1.37-1.42,3-1.73,4.67l1.18-.09c.23-1.23.69-2.44,1.28-3.45Z"/>
                <path class="cls-13" d="m177.97,157.42v-1.92c-1.05.6-2.01,1.68-2.8,3.02l.73,1.13c.58-.99,1.29-1.79,2.07-2.23Z"/>
                <path class="cls-13" d="m174.45,164.88c0-.58.06-1.18.17-1.77l-1.18.09c-.15.8-.23,1.61-.23,2.4s.08,1.51.23,2.13l1.18-1.28c-.11-.46-.17-.99-.17-1.57Z"/>
                <path class="cls-19" d="m182.5,157.96c-.31-1.31-.93-2.23-1.73-2.67-.79-.43-1.75-.39-2.8.21v1.92c.77-.45,1.49-.47,2.07-.15.59.32,1.05,1,1.28,1.97.11.46.17.99.17,1.57s-.06,1.18-.17,1.77c-.23,1.23-.69,2.44-1.28,3.45-.58.99-1.29,1.79-2.07,2.23-.77.45-1.49.47-2.07.15-.59-.32-1.05-1-1.28-1.97l-1.18,1.28c.31,1.31.93,2.23,1.73,2.67.79.43,1.75.39,2.8-.21,1.05-.6,2.01-1.68,2.8-3.02.8-1.37,1.42-3,1.73-4.67.15-.8.23-1.61.23-2.4s-.08-1.51-.23-2.13Z"/>
              </g>
            </g>
            <path class="cls-13" d="m189.86,152.71l22.21-12.82c.6-.35,1.08-.1,1.08.55s-.48,1.45-1.08,1.8l-22.21,12.82c-.6.35-1.08.1-1.08-.55,0-.65.48-1.45,1.08-1.8Z"/>
            <path class="cls-17" d="m189.86,157.44l38.46-22.2c.6-.35,1.08-.1,1.08.55s-.48,1.45-1.08,1.8l-38.46,22.2c-.6.35-1.08.1-1.08-.55,0-.65.48-1.45,1.08-1.8Z"/>
          </g>
          <g>
            <path class="cls-1" d="m248.75,132.78l72.99-42.14c.6-.35,1.08-1.18,1.08-1.88v-18.61c0-.69-.48-.97-1.08-.63l-72.99,42.13c-.6.35-1.08,1.18-1.08,1.88v18.62c0,.69.48.97,1.08.62Z"/>
            <g>
              <g>
                <path class="cls-13" d="m255.47,117.95c0-.13.02-.26.05-.39.04-.13.08-.24.15-.35.06-.11.13-.2.21-.29.08-.08.16-.15.24-.2.08-.05.16-.07.24-.08.08,0,.15,0,.21.05.06.04.11.1.15.18.04.08.05.19.05.32,0,.07,0,.13-.01.19,0,.06-.02.12-.04.18-.01.06-.03.11-.05.17-.02.05-.04.11-.06.16l-.42,1.14s-.02.03-.02.06c0,.02-.02.04-.05.05l-.35.2s-.02,0-.03,0c0,0-.01-.03-.01-.05,0-.01,0-.02,0-.03,0,0,0-.02,0-.02l.28-.78c-.07.03-.14.04-.21.03-.07,0-.12-.03-.17-.07-.05-.04-.09-.1-.12-.18s-.04-.18-.04-.3Zm.89-.51s0-.08-.02-.11c-.01-.03-.03-.05-.05-.06-.02-.01-.05-.02-.08-.02-.03,0-.06.01-.09.03-.03.02-.06.04-.09.07-.03.03-.05.07-.08.11-.02.04-.04.08-.05.13-.01.05-.02.09-.02.14s0,.08.02.11c.01.03.03.05.05.06.02.01.05.02.08.02.03,0,.06-.01.09-.03.03-.02.06-.04.09-.07.03-.03.05-.07.08-.11.02-.04.04-.08.05-.13.01-.05.02-.09.02-.14Z"/>
                <path class="cls-13" d="m257.61,115.86c.11-.06.21-.09.29-.09.08,0,.15.03.2.09.05.05.09.13.12.23.03.1.04.21.04.33,0,.1,0,.2,0,.31s0,.21,0,.3c0,.13-.02.25-.04.38-.03.13-.07.25-.12.36-.05.11-.12.22-.2.32-.08.1-.18.18-.29.24-.11.06-.21.09-.29.09-.08,0-.15-.03-.2-.09-.05-.05-.09-.13-.12-.23-.03-.1-.04-.21-.04-.33,0-.09,0-.19,0-.3s0-.21,0-.31c0-.13.02-.25.04-.38.03-.13.07-.25.12-.36.05-.12.12-.22.2-.32.08-.1.18-.18.29-.24Zm.24,1.38c0-.2,0-.39,0-.57,0-.06,0-.1-.02-.15,0-.04-.02-.08-.04-.1s-.04-.04-.07-.04c-.03,0-.07,0-.11.03-.05.03-.08.06-.11.09-.03.04-.05.08-.07.12-.02.05-.03.09-.04.15,0,.05-.01.11-.01.17,0,.19,0,.38,0,.57,0,.06,0,.11.01.15,0,.04.02.08.04.1.02.02.04.04.07.04.03,0,.07,0,.11-.03.04-.03.08-.06.11-.09.03-.04.05-.08.07-.13.02-.05.03-.1.04-.15,0-.05.01-.11.01-.17Z"/>
                <path class="cls-13" d="m259.14,115.48c0,.09,0,.18,0,.26,0,.07-.01.14-.03.2-.01.07-.04.13-.06.19-.03.06-.07.12-.11.17-.04.05-.09.09-.15.12s-.11.05-.15.05c-.04,0-.08-.02-.11-.04-.03-.03-.05-.07-.06-.12-.02-.05-.02-.11-.03-.17,0-.04,0-.09,0-.13s0-.08,0-.13c0-.07.01-.14.03-.21.01-.07.04-.13.06-.19.03-.06.06-.12.11-.17.04-.05.09-.09.15-.12s.11-.05.15-.05c.04,0,.08.01.11.04.03.03.05.07.07.12.01.05.02.11.03.17Zm.55-.72s.02-.05.03-.07c.01-.02.03-.03.05-.04l.18-.11s.03,0,.04,0c0,0,.01.02.01.04,0,0,0,.01,0,.02,0,0,0,.02,0,.02l-1.1,2.85s-.02.05-.03.07c-.01.02-.03.03-.05.04l-.18.1s-.03.01-.04,0c0,0-.01-.02-.01-.04,0,0,0-.01,0-.02,0,0,0-.02,0-.02l1.1-2.85Zm-.99,1.22c0,.06.01.1.02.12.01.02.04.02.07,0,.03-.02.05-.05.07-.08.01-.04.02-.09.02-.15,0-.08,0-.15,0-.23,0-.06-.01-.1-.02-.12-.01-.02-.03-.02-.07,0-.03.02-.05.05-.07.08-.01.04-.02.09-.02.15,0,.08,0,.15,0,.23Zm1.47.11c0,.09,0,.18,0,.26,0,.07-.01.14-.03.2-.01.07-.04.13-.06.19-.03.06-.06.12-.11.17-.04.05-.09.09-.15.12-.06.03-.11.05-.15.05s-.08-.01-.11-.04c-.03-.03-.05-.07-.06-.12-.01-.05-.02-.11-.03-.17,0-.04,0-.09,0-.12s0-.09,0-.13c0-.07.01-.14.03-.2.01-.07.04-.13.06-.19.03-.06.06-.12.11-.16.04-.05.09-.09.15-.13.06-.03.11-.05.15-.05.04,0,.08.01.11.04.03.03.05.07.06.12.01.05.02.11.03.17Zm-.44.5c0,.06.01.1.02.12.01.02.03.02.07,0,.03-.02.05-.05.07-.08.01-.04.02-.09.02-.15,0-.08,0-.15,0-.23,0-.06-.01-.1-.02-.12-.01-.02-.04-.02-.07,0-.03.02-.06.05-.07.08-.01.04-.02.09-.02.15,0,.08,0,.15,0,.23Z"/>
              </g>
              <g>
                <path class="cls-13" d="m257.83,111.3v-1.92c-1.05.6-2.01,1.68-2.8,3.02l.73,1.13c.58-.99,1.29-1.79,2.07-2.23Z"/>
                <path class="cls-19" d="m262.36,111.84c-.31-1.31-.93-2.23-1.73-2.67-.79-.43-1.75-.39-2.8.21v1.92c.77-.45,1.49-.47,2.07-.15.59.32,1.05,1,1.28,1.97.11.46.17.99.17,1.57s-.06,1.18-.17,1.77c-.23,1.23-.68,2.43-1.28,3.44-.58.98-1.3,1.79-2.07,2.24-.77.45-1.49.47-2.07.15-.59-.32-1.05-1-1.28-1.97-.11-.46-.17-.99-.17-1.57s.06-1.18.17-1.77c.23-1.23.69-2.44,1.28-3.45l-.73-1.13c-.8,1.37-1.42,3-1.73,4.67-.15.8-.23,1.61-.23,2.4s.08,1.51.23,2.13c.31,1.31.93,2.23,1.73,2.67.79.43,1.75.39,2.8-.21,1.05-.6,2.01-1.68,2.8-3.02h0s0,0,0,0c.8-1.37,1.42-3,1.73-4.67.15-.8.23-1.61.23-2.4s-.08-1.51-.23-2.13Z"/>
              </g>
            </g>
            <path class="cls-13" d="m269.7,106.59l22.21-12.82c.6-.35,1.08-.1,1.08.55s-.48,1.45-1.08,1.8l-22.21,12.82c-.6.35-1.08.1-1.08-.55s.48-1.45,1.08-1.8Z"/>
            <path class="cls-17" d="m269.7,111.32l38.46-22.2c.6-.35,1.08-.1,1.08.55s-.48,1.45-1.08,1.8l-38.46,22.2c-.6.35-1.08.1-1.08-.55,0-.65.48-1.45,1.08-1.8Z"/>
          </g>
        </g>
        <g>
          <path class="cls-13" d="m176.98,183.62l15.58-9.02c.6-.35,1.08-.1,1.08.55s-.48,1.45-1.08,1.8l-15.58,9.02c-.6.35-1.08.1-1.08-.55s.48-1.45,1.08-1.8Z"/>
          <path class="cls-17" d="m322.28,105.56h0,0m-.46.26v118.97c0,.33-.29.84-.58,1.01l-151.77,87.62v-118.97c0-.33.29-.84.58-1.01l1.9-1.1c.9-.52,1.58-1.7,1.58-2.74v-6.88c0-.33.29-.84.58-1.01l21.79-12.58v6.4c0,1.16.8,1.77,1.6,1.77.33,0,.66-.09.98-.28l123.34-71.21m-125.46,63.06h0,0m125.87-64.31c-.15,0-.31.05-.48.15l-123.76,71.45c-.17.1-.34.15-.48.15-.36,0-.6-.28-.6-.77v-6.88c0-.49-.24-.77-.6-.77-.15,0-.31.05-.48.15l-22.21,12.82c-.6.35-1.08,1.18-1.08,1.88v6.88c0,.69-.48,1.53-1.08,1.88l-1.9,1.1c-.6.35-1.08,1.18-1.08,1.88v119.45c0,.49.24.77.6.77.15,0,.31-.05.48-.15l152.19-87.87c.6-.35,1.08-1.18,1.08-1.88v-119.45c0-.49-.24-.77-.6-.77h0Z"/>
          <g>
            <path class="cls-17" d="m178.25,199.65c-.19,0-.37-.05-.53-.14-.36-.21-.57-.62-.57-1.13v-4.54c0-.86.59-1.88,1.33-2.31l12.07-6.96c.44-.26.91-.28,1.27-.08.36.21.57.62.57,1.13v4.54c0,.86-.59,1.88-1.33,2.31l-12.07,6.96c-.25.14-.5.21-.74.21Zm.74-7.25c-.44.26-.83.93-.83,1.44v4.54c0,.17.05.26.07.27.02.01.12,0,.27-.08l12.07-6.96c.44-.26.83-.93.83-1.44v-4.54c0-.17-.05-.26-.07-.27-.02-.01-.12,0-.27.08l-12.07,6.96Z"/>
            <path class="cls-17" d="m179.7,194.27l7.87-4.56c.4-.23.72-.07.72.36s-.32.97-.72,1.2l-7.87,4.56c-.4.23-.72.07-.72-.36,0-.43.32-.97.72-1.2Z"/>
            <path class="cls-13" d="m189.4,188.96l.65.93s.07,0,.1-.06l.65-1.68c.03-.08,0-.16-.05-.13l-1.3.75c-.05.03-.08.14-.05.18Z"/>
          </g>
          <g>
            <g>
              <path class="cls-19" d="m176.59,243.6c.58-.33,1.04-.06,1.04.6s-.47,1.48-1.04,1.81-1.04.06-1.04-.6.47-1.48,1.04-1.81Z"/>
              <path class="cls-19" d="m184.71,234.22c.58-.33,1.04-.06,1.04.6s-.47,1.48-1.04,1.81-1.04.06-1.04-.6.47-1.48,1.04-1.81Z"/>
              <path class="cls-19" d="m192.84,229.53c.58-.33,1.04-.06,1.04.6s-.47,1.48-1.04,1.81-1.04.06-1.04-.6.47-1.48,1.04-1.81Z"/>
              <path class="cls-19" d="m200.96,226.9c.58-.33,1.04-.06,1.04.6s-.47,1.48-1.04,1.81-1.04.06-1.04-.6.47-1.48,1.04-1.81Z"/>
              <path class="cls-19" d="m209.1,218.45c.58-.33,1.04-.06,1.04.6,0,.67-.47,1.48-1.04,1.81s-1.04.06-1.04-.6.47-1.48,1.04-1.81Z"/>
              <path class="cls-19" d="m217.21,215.46c.58-.33,1.04-.06,1.04.6s-.47,1.48-1.04,1.81-1.04.06-1.04-.6.47-1.48,1.04-1.81Z"/>
              <path class="cls-19" d="m225.33,206.07c.58-.33,1.04-.06,1.04.6s-.47,1.48-1.04,1.81c-.58.33-1.04.06-1.04-.6s.47-1.48,1.04-1.81Z"/>
              <path class="cls-19" d="m233.46,203.73c.58-.33,1.04-.06,1.04.6s-.47,1.48-1.04,1.81-1.04.06-1.04-.6.47-1.48,1.04-1.81Z"/>
              <path class="cls-19" d="m241.58,177.93c.58-.33,1.04-.06,1.04.6s-.47,1.48-1.04,1.81-1.04.06-1.04-.6.47-1.48,1.04-1.81Z"/>
              <path class="cls-19" d="m249.71,192c.58-.33,1.04-.06,1.04.6s-.47,1.48-1.04,1.81-1.04.06-1.04-.6.47-1.48,1.04-1.81Z"/>
              <path class="cls-19" d="m257.83,192c.58-.33,1.04-.06,1.04.6s-.47,1.48-1.04,1.81-1.04.06-1.04-.6.47-1.48,1.04-1.81Z"/>
              <path class="cls-19" d="m265.95,192c.58-.33,1.04-.06,1.04.6s-.47,1.48-1.04,1.81-1.04.06-1.04-.6.47-1.48,1.04-1.81Z"/>
              <path class="cls-19" d="m274.08,177.93c.58-.33,1.04-.06,1.04.6s-.47,1.48-1.04,1.81-1.04.06-1.04-.6.47-1.48,1.04-1.81Z"/>
              <path class="cls-19" d="m282.2,175.24c.58-.33,1.04-.06,1.04.6s-.47,1.48-1.04,1.81-1.04.06-1.04-.6.47-1.48,1.04-1.81Z"/>
              <path class="cls-19" d="m290.35,163.86c.58-.33,1.04-.06,1.04.6s-.47,1.48-1.04,1.81c-.58.33-1.04.06-1.04-.6s.47-1.48,1.04-1.81Z"/>
              <path class="cls-19" d="m298.45,163.86c.58-.33,1.04-.06,1.04.6s-.47,1.48-1.04,1.81c-.58.33-1.04.06-1.04-.6s.47-1.48,1.04-1.81Z"/>
              <path class="cls-19" d="m306.57,163.86c.58-.33,1.04-.06,1.04.6s-.47,1.48-1.04,1.81c-.58.33-1.04.06-1.04-.6s.47-1.48,1.04-1.81Z"/>
              <path class="cls-19" d="m314.7,159.17c.58-.33,1.04-.06,1.04.6s-.47,1.48-1.04,1.81-1.04.06-1.04-.6.47-1.48,1.04-1.81Z"/>
            </g>
            <path class="cls-19" d="m176.57,245.07c-.06,0-.12-.02-.16-.06-.1-.09-.12-.25-.02-.35l8.2-9.43s.04-.04.06-.05l8.07-4.66,8.11-2.63,8.08-8.4s.06-.05.09-.06l8.06-2.97,8.08-9.33s.07-.06.12-.08l7.99-2.31,8.08-25.67c.03-.09.11-.16.21-.17.09-.01.19.04.24.12l8.05,13.95h8s7.96,0,7.96,0l8.05-13.95c.03-.05.08-.09.14-.11l8.05-2.67,8.08-11.31c.05-.07.12-.1.2-.1h16.18s8.07-4.66,8.07-4.66c.12-.07.27-.03.34.09.07.12.03.27-.09.34l-8.12,4.69s-.08.03-.12.03h-16.12s-8.05,11.27-8.05,11.27c-.03.04-.07.08-.12.09l-8.03,2.67-8.08,13.99c-.05.08-.13.12-.22.12h-8.1s-8.14,0-8.14,0h0c-.09,0-.17-.05-.22-.12l-7.84-13.58-7.95,25.25c-.03.08-.09.14-.17.17l-8.05,2.32-8.08,9.33s-.06.06-.1.07l-8.07,2.97-8.08,8.41s-.06.05-.1.06l-8.12,2.63-7.98,4.61-8.18,9.4c-.05.06-.12.09-.19.09Z"/>
          </g>
          <g>
            <path class="cls-17" d="m176.59,249.99c-.17,0-.34-.09-.43-.25-.14-.24-.06-.54.18-.68l138.11-79.74c.24-.14.54-.06.68.18.14.24.06.54-.18.68l-138.11,79.74c-.08.05-.16.07-.25.07Z"/>
            <g>
              <g>
                <g>
                  <path class="cls-19" d="m176.59,238.91c.58-.33,1.04-.06,1.04.6s-.47,1.48-1.04,1.81-1.04.06-1.04-.6.47-1.48,1.04-1.81Z"/>
                  <path class="cls-19" d="m184.71,224.84c.58-.33,1.04-.06,1.04.6s-.47,1.48-1.04,1.81-1.04.06-1.04-.6.47-1.48,1.04-1.81Z"/>
                  <path class="cls-19" d="m192.84,223.08c.58-.33,1.04-.06,1.04.6s-.47,1.48-1.04,1.81c-.58.33-1.04.06-1.04-.6s.47-1.48,1.04-1.81Z"/>
                  <path class="cls-19" d="m200.96,206.07c.58-.33,1.04-.06,1.04.6s-.47,1.48-1.04,1.81c-.58.33-1.04.06-1.04-.6s.47-1.48,1.04-1.81Z"/>
                  <path class="cls-19" d="m209.1,210.76c.58-.33,1.04-.06,1.04.6,0,.67-.47,1.48-1.04,1.81-.58.33-1.04.06-1.04-.6s.47-1.48,1.04-1.81Z"/>
                  <path class="cls-19" d="m217.21,208.42c.58-.33,1.04-.06,1.04.6,0,.67-.47,1.48-1.04,1.81-.58.33-1.04.06-1.04-.6s.47-1.48,1.04-1.81Z"/>
                  <path class="cls-19" d="m225.33,201.38c.58-.33,1.04-.06,1.04.6s-.47,1.48-1.04,1.81c-.58.33-1.04.06-1.04-.6s.47-1.48,1.04-1.81Z"/>
                  <path class="cls-19" d="m233.46,192c.58-.33,1.04-.06,1.04.6s-.47,1.48-1.04,1.81-1.04.06-1.04-.6.47-1.48,1.04-1.81Z"/>
                  <path class="cls-19" d="m241.58,189.66c.58-.33,1.04-.06,1.04.6s-.47,1.48-1.04,1.81-1.04.06-1.04-.6.47-1.48,1.04-1.81Z"/>
                  <path class="cls-19" d="m249.71,182.62c.58-.33,1.04-.06,1.04.6s-.47,1.48-1.04,1.81-1.04.06-1.04-.6.47-1.48,1.04-1.81Z"/>
                  <path class="cls-19" d="m257.83,182.62c.58-.33,1.04-.06,1.04.6s-.47,1.48-1.04,1.81-1.04.06-1.04-.6.47-1.48,1.04-1.81Z"/>
                  <path class="cls-19" d="m265.95,163.86c.58-.33,1.04-.06,1.04.6s-.47,1.48-1.04,1.81-1.04.06-1.04-.6.47-1.48,1.04-1.81Z"/>
                  <path class="cls-19" d="m274.08,173.17c.58-.33,1.04-.06,1.04.6s-.47,1.48-1.04,1.81-1.04.06-1.04-.6.47-1.48,1.04-1.81Z"/>
                  <path class="cls-19" d="m282.2,163.86c.58-.33,1.04-.06,1.04.6s-.47,1.48-1.04,1.81c-.58.33-1.04.06-1.04-.6s.47-1.48,1.04-1.81Z"/>
                  <path class="cls-19" d="m290.33,159.17c.58-.33,1.04-.06,1.04.6s-.47,1.48-1.04,1.81-1.04.06-1.04-.6.47-1.48,1.04-1.81Z"/>
                  <path class="cls-19" d="m298.45,159.17c.58-.33,1.04-.06,1.04.6s-.47,1.48-1.04,1.81c-.58.33-1.04.06-1.04-.6s.47-1.48,1.04-1.81Z"/>
                  <path class="cls-19" d="m306.57,154.48c.58-.33,1.04-.06,1.04.6s-.47,1.48-1.04,1.81-1.04.06-1.04-.6.47-1.48,1.04-1.81Z"/>
                  <path class="cls-19" d="m314.7,154.48c.58-.33,1.04-.06,1.04.6s-.47,1.48-1.04,1.81-1.04.06-1.04-.6.47-1.48,1.04-1.81Z"/>
                </g>
                <path class="cls-19" d="m176.59,240.36s-.09-.01-.12-.03c-.12-.07-.16-.22-.09-.34l8.18-14.11c.04-.06.09-.1.16-.12l7.95-1.7,8.07-16.9c.03-.06.09-.11.15-.13.07-.02.14-.01.2.02l8.04,4.64,7.96-2.31,8.07-6.99,8.11-9.36s.07-.06.12-.08l8.07-2.33,8.08-7s.1-.06.16-.06h7.96l8.06-18.61c.03-.08.11-.13.19-.15.08-.01.17.02.23.08l7.93,9.16,7.93-9.16s.04-.04.06-.05l8.15-4.71s.08-.03.12-.03h8.06l8.04-4.64s.08-.03.12-.03h8.12c.14,0,.25.11.25.25s-.11.25-.25.25h-8.06l-8.04,4.64s-.08.03-.12.03h-8.06l-8.06,4.65-8.1,9.35c-.1.11-.28.11-.38,0l-7.86-9.08-7.97,18.4c-.04.09-.13.15-.23.15h-8.03l-8.05,6.97s-.06.04-.09.05l-8.05,2.32-8.09,9.33-8.14,7.05s-.06.04-.09.05l-8.12,2.35c-.07.02-.14,0-.19-.02l-7.9-4.56-8.01,16.76c-.03.07-.1.12-.17.14l-7.96,1.7-8.13,14.01c-.05.08-.13.12-.22.12Z"/>
              </g>
              <g class="cls-12">
                <g>
                  <path d="m176.59,238.91c.58-.33,1.04-.06,1.04.6s-.47,1.48-1.04,1.81-1.04.06-1.04-.6.47-1.48,1.04-1.81Z"/>
                  <path d="m184.71,224.84c.58-.33,1.04-.06,1.04.6s-.47,1.48-1.04,1.81-1.04.06-1.04-.6.47-1.48,1.04-1.81Z"/>
                  <path d="m192.84,223.08c.58-.33,1.04-.06,1.04.6s-.47,1.48-1.04,1.81c-.58.33-1.04.06-1.04-.6s.47-1.48,1.04-1.81Z"/>
                  <path d="m200.96,206.07c.58-.33,1.04-.06,1.04.6s-.47,1.48-1.04,1.81c-.58.33-1.04.06-1.04-.6s.47-1.48,1.04-1.81Z"/>
                  <path d="m209.1,210.76c.58-.33,1.04-.06,1.04.6,0,.67-.47,1.48-1.04,1.81-.58.33-1.04.06-1.04-.6s.47-1.48,1.04-1.81Z"/>
                  <path d="m217.21,208.42c.58-.33,1.04-.06,1.04.6,0,.67-.47,1.48-1.04,1.81-.58.33-1.04.06-1.04-.6s.47-1.48,1.04-1.81Z"/>
                  <path d="m225.33,201.38c.58-.33,1.04-.06,1.04.6s-.47,1.48-1.04,1.81c-.58.33-1.04.06-1.04-.6s.47-1.48,1.04-1.81Z"/>
                  <path d="m233.46,192c.58-.33,1.04-.06,1.04.6s-.47,1.48-1.04,1.81-1.04.06-1.04-.6.47-1.48,1.04-1.81Z"/>
                  <path d="m241.58,189.66c.58-.33,1.04-.06,1.04.6s-.47,1.48-1.04,1.81-1.04.06-1.04-.6.47-1.48,1.04-1.81Z"/>
                  <path d="m249.71,182.62c.58-.33,1.04-.06,1.04.6s-.47,1.48-1.04,1.81-1.04.06-1.04-.6.47-1.48,1.04-1.81Z"/>
                  <path d="m257.83,182.62c.58-.33,1.04-.06,1.04.6s-.47,1.48-1.04,1.81-1.04.06-1.04-.6.47-1.48,1.04-1.81Z"/>
                  <path d="m265.95,163.86c.58-.33,1.04-.06,1.04.6s-.47,1.48-1.04,1.81-1.04.06-1.04-.6.47-1.48,1.04-1.81Z"/>
                  <path d="m274.08,173.17c.58-.33,1.04-.06,1.04.6s-.47,1.48-1.04,1.81-1.04.06-1.04-.6.47-1.48,1.04-1.81Z"/>
                  <path d="m282.2,163.86c.58-.33,1.04-.06,1.04.6s-.47,1.48-1.04,1.81c-.58.33-1.04.06-1.04-.6s.47-1.48,1.04-1.81Z"/>
                  <path d="m290.33,159.17c.58-.33,1.04-.06,1.04.6s-.47,1.48-1.04,1.81-1.04.06-1.04-.6.47-1.48,1.04-1.81Z"/>
                  <path d="m298.45,159.17c.58-.33,1.04-.06,1.04.6s-.47,1.48-1.04,1.81c-.58.33-1.04.06-1.04-.6s.47-1.48,1.04-1.81Z"/>
                  <path d="m306.57,154.48c.58-.33,1.04-.06,1.04.6s-.47,1.48-1.04,1.81-1.04.06-1.04-.6.47-1.48,1.04-1.81Z"/>
                  <path d="m314.7,154.48c.58-.33,1.04-.06,1.04.6s-.47,1.48-1.04,1.81-1.04.06-1.04-.6.47-1.48,1.04-1.81Z"/>
                </g>
                <path d="m176.59,240.36s-.09-.01-.12-.03c-.12-.07-.16-.22-.09-.34l8.18-14.11c.04-.06.09-.1.16-.12l7.95-1.7,8.07-16.9c.03-.06.09-.11.15-.13.07-.02.14-.01.2.02l8.04,4.64,7.96-2.31,8.07-6.99,8.11-9.36s.07-.06.12-.08l8.07-2.33,8.08-7s.1-.06.16-.06h7.96l8.06-18.61c.03-.08.11-.13.19-.15.08-.01.17.02.23.08l7.93,9.16,7.93-9.16s.04-.04.06-.05l8.15-4.71s.08-.03.12-.03h8.06l8.04-4.64s.08-.03.12-.03h8.12c.14,0,.25.11.25.25s-.11.25-.25.25h-8.06l-8.04,4.64s-.08.03-.12.03h-8.06l-8.06,4.65-8.1,9.35c-.1.11-.28.11-.38,0l-7.86-9.08-7.97,18.4c-.04.09-.13.15-.23.15h-8.03l-8.05,6.97s-.06.04-.09.05l-8.05,2.32-8.09,9.33-8.14,7.05s-.06.04-.09.05l-8.12,2.35c-.07.02-.14,0-.19-.02l-7.9-4.56-8.01,16.76c-.03.07-.1.12-.17.14l-7.96,1.7-8.13,14.01c-.05.08-.13.12-.22.12Z"/>
              </g>
            </g>
            <g>
              <path class="cls-17" d="m180.85,204.1l7.87-4.56c.4-.23.72-.07.72.36s-.32.97-.72,1.2l-7.87,4.56c-.4.23-.72.07-.72-.36,0-.43.32-.97.72-1.2Z"/>
              <g>
                <path class="cls-19" d="m176.59,206.07c.58-.33,1.04-.06,1.04.6s-.47,1.48-1.04,1.81-1.04.06-1.04-.6.47-1.48,1.04-1.81Z"/>
                <path class="cls-12" d="m176.59,206.07c.58-.33,1.04-.06,1.04.6s-.47,1.48-1.04,1.81-1.04.06-1.04-.6.47-1.48,1.04-1.81Z"/>
              </g>
            </g>
            <g>
              <path class="cls-17" d="m180.85,208.78l7.87-4.56c.4-.23.72-.07.72.36s-.32.97-.72,1.2l-7.87,4.56c-.4.23-.72.07-.72-.36,0-.43.32-.97.72-1.2Z"/>
              <path class="cls-19" d="m176.59,210.76c.58-.33,1.04-.06,1.04.6s-.47,1.48-1.04,1.81-1.04.06-1.04-.6.47-1.48,1.04-1.81Z"/>
            </g>
          </g>
          <g>
            <g>
              <path class="cls-19" d="m176.59,273.26c-.06,0-.13-.02-.17-.07-.1-.1-.1-.25,0-.35l4.12-4.24,4.05-.51,4.09-5.28,4.09.56,3.97-3.59,4.06-2.43,4.14-5.73,4.11,1.29,3.95-3.53c.1-.09.26-.08.35.02.09.1.08.26-.02.35l-4.16,3.72-4.03-1.26-4.03,5.55-4.06,2.43-4.11,3.72-4.03-.55-4.04,5.22-4.08.52-4,4.11c-.05.05-.11.08-.18.08Z"/>
              <g>
                <path class="cls-13" d="m178.2,259.55s.06-.06.1-.09c.04-.03.08-.06.11-.08.22-.13.43-.19.61-.19.19,0,.35.07.49.18.14.12.24.29.32.51.08.22.12.49.12.8s-.04.62-.12.94c-.08.31-.18.61-.32.89-.14.28-.3.53-.49.75-.19.22-.39.4-.61.52-.22.13-.43.19-.62.19-.19,0-.35-.07-.49-.19-.14-.12-.24-.29-.32-.51-.08-.22-.12-.49-.12-.8,0-.18.01-.35.04-.52.03-.17.06-.33.1-.49.04-.16.09-.31.14-.47.05-.15.1-.3.15-.44l1.08-3.08s.04-.09.07-.15c.02-.06.06-.1.12-.14l.34-.2s.06-.02.09,0c.02.03.03.07.03.12,0,.03,0,.06,0,.08,0,.02-.01.04-.02.06l-.8,2.27Zm-.76,2.6c0,.18.02.34.07.48.05.14.11.25.19.33.08.08.18.12.31.13.12,0,.26-.03.41-.12s.29-.2.41-.35c.12-.15.22-.31.31-.48.08-.18.15-.36.19-.55.04-.19.07-.38.07-.56s-.02-.34-.07-.48c-.05-.14-.11-.25-.19-.33s-.19-.12-.31-.13c-.12,0-.26.03-.41.12s-.29.2-.41.35-.22.31-.31.48c-.08.18-.15.36-.19.55-.04.19-.07.38-.07.56Z"/>
                <path class="cls-13" d="m180.96,260.68c.02.09.05.17.08.24.04.08.09.13.16.17.07.04.17.04.28.03.12-.02.27-.08.46-.19.12-.07.24-.16.35-.27.11-.11.21-.24.29-.38.08-.15.15-.3.2-.48.05-.17.07-.36.07-.56s-.02-.35-.07-.46c-.05-.11-.11-.18-.19-.22-.08-.04-.18-.04-.29-.01-.11.03-.23.08-.36.15l-.49.29s-.08.02-.11,0c-.03-.03-.05-.08-.05-.15v-.33c0-.06.01-.11.03-.17.02-.06.04-.11.06-.16l1.07-2.39-1.71.99s-.08.02-.11,0c-.03-.03-.05-.08-.05-.15v-.33c0-.07.02-.13.05-.2.03-.07.07-.11.11-.14l2.34-1.35s.08-.02.11,0c.03.03.05.08.05.15v.33c0,.06,0,.11-.03.18-.02.06-.05.13-.08.2l-1.05,2.36c.2-.11.38-.17.54-.17.16,0,.3.04.42.13.12.09.21.24.27.43.07.19.1.43.1.72,0,.31-.04.61-.12.91-.08.29-.19.56-.32.81-.13.24-.29.46-.47.66-.18.2-.37.35-.57.47-.27.15-.49.24-.69.25-.19.02-.35-.02-.48-.1-.12-.08-.22-.2-.28-.36-.06-.16-.09-.33-.1-.53,0-.06.01-.11.04-.17.03-.05.06-.09.09-.11l.27-.16s.08-.03.1,0c.03.02.04.06.05.1Z"/>
                <path class="cls-13" d="m184.5,258.64c.02.09.05.17.08.25.04.08.09.13.16.17.07.04.17.04.28.02.12-.02.27-.08.46-.19.12-.07.24-.16.35-.27.11-.11.21-.24.29-.38s.15-.31.2-.48c.05-.17.07-.36.07-.56s-.02-.35-.07-.46c-.05-.11-.11-.18-.19-.22-.08-.04-.18-.04-.29-.01-.11.03-.23.08-.36.15l-.49.29s-.08.02-.11,0c-.03-.03-.05-.08-.05-.15v-.33c0-.05.01-.11.03-.17.02-.06.04-.11.06-.16l1.07-2.39-1.71.99s-.08.02-.11,0c-.03-.03-.05-.08-.05-.15v-.33c0-.07.02-.13.05-.2.03-.07.07-.11.11-.14l2.34-1.35s.08-.02.11,0c.03.03.05.08.05.15v.33c0,.06-.01.11-.03.18-.02.06-.05.13-.08.2l-1.05,2.36c.2-.11.38-.17.54-.17.17,0,.31.04.42.13.12.09.21.24.27.43.07.19.1.43.1.72,0,.31-.04.61-.12.91-.08.29-.19.56-.32.81s-.29.46-.47.66c-.18.2-.37.35-.57.47-.27.15-.5.24-.69.25-.19.02-.35-.02-.48-.1-.12-.08-.22-.2-.28-.36-.06-.16-.09-.34-.1-.53,0-.06.01-.11.04-.17.03-.05.06-.09.09-.11l.27-.16s.08-.02.1,0c.03.03.04.06.05.1Z"/>
              </g>
              <path class="cls-17" d="m177.32,276.49l35.1-20.34c.4-.23.72-.07.72.36s-.32.97-.72,1.2l-35.1,20.34c-.4.23-.72.07-.72-.36,0-.43.32-.97.72-1.2Z"/>
              <path class="cls-17" d="m177.32,253.03l7.87-4.56c.4-.23.72-.07.72.36s-.32.97-.72,1.2l-7.87,4.56c-.4.23-.72.07-.72-.36,0-.43.32-.97.72-1.2Z"/>
            </g>
            <g>
              <path class="cls-19" d="m176.59,301.38c-.06,0-.13-.02-.17-.07-.1-.1-.1-.25,0-.35l4.12-4.24,4.07-.52,4.1-3.59,3.95-1.08,4.12-8.21,4.13,2.02,3.99-3.51h.07s3.96-.76,3.96-.76l4-6.91c.07-.12.22-.16.34-.09.12.07.16.22.09.34l-4.11,7.11-4.12.78-4.14,3.64-3.99-1.95-4,7.97-4.11,1.12-4.08,3.6-4.05.51-4,4.11c-.05.05-.11.08-.18.08Z"/>
              <g class="cls-12">
                <path d="m176.59,301.38c-.06,0-.13-.02-.17-.07-.1-.1-.1-.25,0-.35l4.12-4.24,4.07-.52,4.1-3.59,3.95-1.08,4.12-8.21,4.13,2.02,3.99-3.51h.07s3.96-.76,3.96-.76l4-6.91c.07-.12.22-.16.34-.09.12.07.16.22.09.34l-4.11,7.11-4.12.78-4.14,3.64-3.99-1.95-4,7.97-4.11,1.12-4.08,3.6-4.05.51-4,4.11c-.05.05-.11.08-.18.08Z"/>
              </g>
              <g>
                <path class="cls-13" d="m178.67,291.42c0,.07-.02.13-.05.2-.03.07-.07.11-.11.14l-.24.14s-.08.02-.11,0c-.03-.03-.05-.08-.05-.15v-5.04l-.96,1.68c-.04.07-.08.11-.12.12-.04.01-.08,0-.11-.03l-.14-.2s-.04-.09-.03-.16c0-.07.03-.14.06-.2l1.27-2.24c.03-.05.06-.09.1-.12.03-.02.06-.04.09-.06l.24-.14s.08-.02.11,0c.03.03.05.08.05.15v5.91Z"/>
                <path class="cls-13" d="m181.26,286.8c.12-.23.21-.45.27-.66.06-.21.09-.45.09-.72,0-.32-.06-.56-.18-.71-.12-.14-.32-.14-.58.01-.14.08-.26.18-.35.29-.1.12-.18.25-.24.39-.06.14-.12.3-.15.46-.04.16-.07.32-.09.48-.01.07-.03.14-.06.19-.03.05-.06.09-.09.11l-.27.16s-.07.02-.09,0c-.03-.03-.04-.07-.04-.12,0-.23.04-.48.1-.75.06-.27.15-.53.27-.79.12-.26.26-.5.44-.72.17-.22.37-.4.59-.52.22-.13.41-.18.58-.18.17,0,.31.07.42.18.11.11.2.27.25.48.06.21.09.44.09.71,0,.2-.01.38-.03.55-.02.17-.05.34-.1.51s-.1.34-.18.52c-.07.17-.16.36-.26.56l-1.33,2.67,1.82-1.05s.08-.02.11,0c.03.03.05.08.05.15v.33c0,.07-.02.13-.05.2-.03.07-.07.11-.11.14l-2.56,1.48s-.08.02-.11,0c-.03-.03-.05-.08-.05-.15v-.33c0-.07.01-.13.03-.19.02-.06.05-.14.1-.23l1.74-3.45Z"/>
                <path class="cls-13" d="m185.96,283.48c0,.27,0,.53,0,.77s0,.5,0,.78c0,.36-.04.71-.1,1.05-.06.34-.15.66-.28.96-.12.3-.28.56-.47.8-.19.24-.41.43-.67.58-.26.15-.49.22-.67.2-.19-.02-.34-.11-.47-.26-.12-.15-.22-.37-.28-.64-.06-.27-.09-.58-.1-.94,0-.27,0-.53,0-.77s0-.5,0-.78c0-.36.04-.71.1-1.05.06-.34.15-.66.28-.96.12-.3.28-.57.47-.8.19-.24.41-.44.67-.59.26-.15.49-.21.67-.19.19.02.34.11.47.27.12.15.21.37.28.64.06.27.09.58.1.94Zm-2.47,2.97c0,.57.09.95.25,1.13.16.18.4.18.7,0,.31-.18.54-.45.7-.82.16-.37.25-.84.25-1.43,0-.28,0-.54,0-.78s0-.5,0-.77c0-.58-.09-.96-.25-1.14-.16-.18-.39-.19-.7,0-.31.18-.54.45-.7.82-.16.37-.25.85-.25,1.43,0,.28,0,.54,0,.78s0,.5,0,.77Z"/>
              </g>
              <path class="cls-17" d="m177.32,304.61l35.1-20.34c.4-.23.72-.07.72.36s-.32.97-.72,1.2l-35.1,20.34c-.4.23-.72.07-.72-.36,0-.43.32-.97.72-1.2Z"/>
              <path class="cls-17" d="m177.32,281.15l7.87-4.56c.4-.23.72-.07.72.36s-.32.97-.72,1.2l-7.87,4.56c-.4.23-.72.07-.72-.37,0-.43.32-.97.72-1.2Z"/>
            </g>
            <g>
              <path class="cls-19" d="m225.33,245.06c-.07,0-.15-.03-.2-.09-.09-.11-.07-.27.04-.35l4.06-3.24,4.09-4.67,4.15-.6,3.96-.89,4.1-4.84,4.04.71,4.05-6.41,4.11.07,3.98-3.56c.1-.09.26-.08.35.02.09.1.08.26-.02.35l-4.13,3.69-4.03-.07-4.08,6.46-4.09-.72-4.02,4.75-4.14.93-3.99.58-4,4.57-4.09,3.27s-.1.05-.16.05Z"/>
              <g>
                <path class="cls-13" d="m226.94,231.35s.06-.06.1-.09c.04-.03.08-.06.11-.08.22-.13.43-.19.61-.19.19,0,.35.07.49.18.14.12.24.29.32.51.08.22.12.49.12.8s-.04.62-.12.94c-.08.31-.18.61-.32.89-.14.28-.3.53-.49.75-.19.22-.39.4-.61.52-.22.13-.43.19-.62.19-.19,0-.35-.07-.49-.19-.14-.12-.24-.29-.32-.51-.08-.22-.12-.49-.12-.8,0-.18.01-.35.04-.52.03-.17.06-.33.1-.49.04-.16.09-.31.14-.47.05-.15.1-.3.15-.44l1.08-3.08s.04-.09.07-.15c.02-.06.06-.1.12-.14l.34-.2s.06-.02.09,0c.02.03.03.07.03.12,0,.03,0,.06,0,.08,0,.02-.01.04-.02.06l-.8,2.27Zm-.76,2.6c0,.18.02.34.07.48.05.14.11.25.19.33.08.08.18.12.31.13.12,0,.26-.03.41-.12.15-.09.29-.2.41-.35.12-.15.22-.31.31-.48.08-.18.15-.36.19-.55.04-.19.07-.38.07-.56s-.02-.34-.07-.48c-.05-.14-.11-.25-.19-.33-.08-.08-.19-.12-.31-.13-.12,0-.26.03-.41.12-.15.09-.29.2-.41.35-.12.15-.22.31-.31.48-.08.18-.15.36-.19.55-.04.19-.07.38-.07.56Z"/>
                <path class="cls-13" d="m231.06,229.87c.12-.23.21-.45.27-.66.06-.21.09-.45.09-.72,0-.32-.06-.56-.18-.71-.12-.14-.32-.14-.58.01-.14.08-.26.18-.35.29-.1.12-.18.25-.24.39-.07.14-.12.3-.16.46-.04.16-.07.32-.09.48-.01.07-.03.14-.06.19-.03.05-.06.09-.09.11l-.27.16s-.07.02-.09,0c-.03-.03-.04-.07-.04-.12,0-.23.04-.48.1-.75.06-.27.16-.53.27-.79.12-.26.26-.5.44-.72.17-.22.37-.4.59-.52.22-.13.41-.18.58-.18.17,0,.3.07.42.18.11.11.2.27.25.48.06.2.09.44.09.71,0,.2,0,.38-.03.55-.02.17-.05.34-.1.51-.04.17-.1.34-.18.52-.07.17-.16.36-.26.56l-1.33,2.67,1.82-1.05s.08-.02.11,0c.03.03.05.08.05.15v.33c0,.07-.02.13-.05.2-.03.07-.07.11-.11.14l-2.56,1.48s-.08.02-.11,0c-.03-.03-.05-.08-.05-.15v-.33c0-.07,0-.13.03-.19.02-.06.05-.14.1-.23l1.74-3.45Z"/>
                <path class="cls-13" d="m235.1,224.5s.08-.02.11,0c.03.03.05.08.05.15v.33c0,.05,0,.12-.02.18-.01.07-.03.14-.05.22l-1.32,6.01c-.02.06-.04.13-.06.19-.03.06-.06.1-.11.13l-.27.16s-.07.02-.1,0c-.03-.03-.04-.07-.04-.13,0-.01,0-.03,0-.04,0-.02,0-.04.02-.08l1.33-6.02-1.95,1.13s-.08.02-.11,0c-.03-.03-.05-.08-.05-.15v-.33c0-.07.02-.13.05-.2.03-.07.07-.11.11-.14l2.42-1.4Z"/>
              </g>
              <path class="cls-17" d="m226.07,248.29l35.1-20.34c.4-.23.72-.07.72.36s-.32.97-.72,1.2l-35.1,20.34c-.4.23-.72.07-.72-.36,0-.43.32-.97.72-1.2Z"/>
              <path class="cls-17" d="m226.07,224.83l7.87-4.56c.4-.23.72-.07.72.36s-.32.97-.72,1.2l-7.87,4.56c-.4.23-.72.07-.72-.36s.32-.97.72-1.2Z"/>
            </g>
            <g>
              <path class="cls-19" d="m225.33,273.18s-.09-.01-.13-.04c-.12-.07-.16-.23-.08-.34l4.15-6.81,4.17.77,3.93-1.07,4.06-4.96,4.04-1.02,4.11-7.32,4.2,1.22,3.94-.75,4-3.56c.1-.09.26-.08.35.02.09.1.08.26-.02.35l-4.1,3.65h-.07s-4.13.8-4.13.8l-3.93-1.14-4.02,7.16-4.09,1.03-4.06,4.95-.08.02-4.12,1.12h-.06s-3.89-.73-3.89-.73l-3.97,6.51c-.05.08-.13.12-.21.12Z"/>
              <g class="cls-12">
                <path d="m225.33,273.18s-.09-.01-.13-.04c-.12-.07-.16-.23-.08-.34l4.15-6.81,4.17.77,3.93-1.07,4.06-4.96,4.04-1.02,4.11-7.32,4.2,1.22,3.94-.75,4-3.56c.1-.09.26-.08.35.02.09.1.08.26-.02.35l-4.1,3.65h-.07s-4.13.8-4.13.8l-3.93-1.14-4.02,7.16-4.09,1.03-4.06,4.95-.08.02-4.12,1.12h-.06s-3.89-.73-3.89-.73l-3.97,6.51c-.05.08-.13.12-.21.12Z"/>
              </g>
              <g>
                <path class="cls-13" d="m227.21,261.38s-.05.04-.08.06c-.04.02-.06.04-.08.05-.19.11-.38.17-.55.18-.18,0-.34-.04-.48-.14-.14-.1-.25-.26-.34-.48-.09-.22-.13-.5-.13-.85,0-.31.04-.62.12-.93s.19-.6.32-.87c.14-.27.29-.51.48-.73.18-.21.37-.38.57-.5.23-.13.44-.2.62-.19.18,0,.34.06.47.18s.23.29.3.51c.07.22.1.49.1.8,0,.15-.01.32-.05.49-.03.17-.07.35-.12.52-.05.17-.1.34-.16.51-.06.17-.11.32-.15.46l-1.08,3.08s-.04.09-.07.15c-.02.06-.06.11-.12.14l-.34.2s-.06.02-.09,0c-.02-.03-.03-.07-.03-.12,0-.03,0-.06,0-.08,0-.02.01-.04.02-.06l.84-2.36Zm.77-2.59c0-.19-.02-.35-.07-.49-.05-.14-.11-.24-.19-.32-.08-.07-.18-.11-.29-.11-.11,0-.24.04-.37.12-.14.08-.26.19-.38.32-.11.13-.21.28-.29.45-.08.16-.14.34-.19.53-.05.19-.07.38-.07.57s.02.36.07.5c.04.14.11.24.19.31.08.07.18.11.29.11.11,0,.24-.04.38-.12.13-.08.26-.18.37-.32.12-.13.21-.28.29-.45.08-.17.14-.34.19-.53.04-.19.07-.38.07-.58Z"/>
                <path class="cls-13" d="m229.53,260.7c.02.09.05.17.08.25.04.08.09.13.16.17.07.04.17.04.28.02.12-.02.27-.08.46-.19.12-.07.24-.16.35-.27.11-.11.21-.24.29-.38.08-.15.15-.31.2-.48.05-.17.08-.36.08-.56s-.02-.35-.07-.46c-.05-.11-.11-.18-.19-.22-.08-.04-.18-.04-.29-.01-.11.03-.23.08-.36.15l-.49.29s-.08.02-.11,0c-.03-.03-.05-.08-.05-.15v-.33c0-.06.01-.11.03-.17.02-.06.04-.11.06-.16l1.07-2.39-1.71.99s-.08.02-.11,0c-.03-.03-.05-.08-.05-.15v-.33c0-.07.02-.13.05-.2.03-.07.07-.11.11-.14l2.34-1.35s.08-.02.11,0c.03.03.05.08.05.15v.33c0,.05,0,.11-.03.18-.02.06-.05.13-.08.2l-1.05,2.36c.2-.11.38-.17.54-.17.17,0,.31.04.42.13.12.09.21.24.27.43.06.19.1.43.1.72,0,.31-.04.61-.12.91-.08.29-.19.56-.32.81-.13.24-.29.46-.47.66-.18.2-.37.35-.57.47-.27.15-.5.24-.69.25-.19.02-.35-.02-.48-.1-.12-.08-.22-.2-.28-.36-.06-.16-.09-.33-.1-.53,0-.06.01-.11.04-.17.03-.05.06-.09.09-.11l.27-.16s.08-.03.1,0c.03.02.04.06.05.1Z"/>
              </g>
              <path class="cls-17" d="m226.07,276.41l35.1-20.34c.4-.23.72-.07.72.36s-.32.97-.72,1.2l-35.1,20.34c-.4.23-.72.07-.72-.36s.32-.97.72-1.2Z"/>
              <path class="cls-17" d="m226.07,252.94l7.87-4.56c.4-.23.72-.07.72.36s-.32.97-.72,1.2l-7.87,4.56c-.4.23-.72.07-.72-.36,0-.43.32-.97.72-1.2Z"/>
            </g>
          </g>
          <g>
            <g>
              <g>
                <path class="cls-19" d="m278.14,199.42c1.73-1,3.33-1.05,4.63-.34l-4.63,12.48v-12.14Z"/>
                <path class="cls-19" d="m273.51,204.42c1.3-2.21,2.9-4,4.63-5v12.14l-4.63-7.14Z"/>
                <path class="cls-19" d="m270.64,212.13c.52-2.76,1.54-5.46,2.87-7.72l4.63,7.14-7.5.58Z"/>
                <path class="cls-12" d="m273.51,204.42c-1.33,2.26-2.35,4.96-2.87,7.72l7.5-.58v-12.14c-1.73,1-3.33,2.79-4.63,5Z"/>
                <path class="cls-19" d="m282.77,199.07c1.33.72,2.35,2.24,2.87,4.41l-7.5,8.08,4.63-12.48Z"/>
                <path class="cls-19" d="m270.64,219.64c-.25-1.04-.39-2.22-.39-3.53s.14-2.65.39-3.97l7.5-.58-7.5,8.08Z"/>
                <path class="cls-19" d="m285.64,210.98c-.52,2.76-1.54,5.46-2.87,7.72l-4.63-7.14,7.5-.58Z"/>
                <path class="cls-19" d="m278.14,223.7c-1.73,1-3.33,1.05-4.63.34l4.63-12.48v12.14Z"/>
                <path class="cls-19" d="m270.64,219.64l7.5-8.08-4.63,12.48c-1.33-.72-2.35-2.24-2.87-4.41Z"/>
                <path class="cls-19" d="m285.64,203.48c.25,1.04.39,2.22.39,3.53s-.14,2.65-.39,3.97l-7.5.58,7.5-8.08Z"/>
                <path class="cls-19" d="m282.77,218.7c-1.3,2.21-2.9,4-4.63,5v-12.14l4.63,7.14Z"/>
              </g>
              <g>
                <path class="cls-13" d="m274.21,229.89l7.87-4.56c.4-.23.72-.07.72.36s-.32.97-.72,1.2l-7.87,4.56c-.4.23-.72.07-.72-.36s.32-.97.72-1.2Z"/>
                <path class="cls-17" d="m272.47,235.59l11.34-6.58c.4-.23.72-.07.72.36s-.32.97-.72,1.2l-11.34,6.58c-.4.23-.72.07-.72-.37,0-.43.32-.97.72-1.2Z"/>
                <path class="cls-17" d="m272.47,240.3l11.34-6.58c.4-.23.72-.07.72.37s-.32.97-.72,1.2l-11.34,6.58c-.4.23-.72.07-.72-.36,0-.43.32-.97.72-1.2Z"/>
                <path class="cls-17" d="m272.47,245l11.34-6.58c.4-.23.72-.07.72.36s-.32.97-.72,1.2l-11.34,6.58c-.4.23-.72.07-.72-.36,0-.43.32-.97.72-1.2Z"/>
              </g>
            </g>
            <g>
              <g>
                <path class="cls-19" d="m306.57,182.94c1.73-1,3.33-1.05,4.63-.34l-4.63,12.48v-12.14Z"/>
                <path class="cls-19" d="m301.94,187.94c1.3-2.21,2.9-4,4.63-5v12.14l-4.63-7.14Z"/>
                <path class="cls-19" d="m299.08,195.66c.52-2.76,1.54-5.46,2.87-7.72l4.63,7.14-7.5.58Z"/>
                <path class="cls-19" d="m311.2,182.59c1.33.72,2.35,2.24,2.87,4.41l-7.5,8.08,4.63-12.48Z"/>
                <path class="cls-19" d="m299.08,203.16c-.25-1.04-.39-2.22-.39-3.53s.14-2.65.39-3.97l7.5-.58-7.5,8.08Z"/>
                <path class="cls-19" d="m314.07,194.5c-.52,2.76-1.54,5.46-2.87,7.72l-4.63-7.14,7.5-.58Z"/>
                <path class="cls-19" d="m306.57,207.22c-1.73,1-3.33,1.05-4.63.34l4.63-12.48v12.14Z"/>
                <path class="cls-19" d="m299.08,203.16l7.5-8.08-4.63,12.48c-1.33-.72-2.35-2.24-2.87-4.41Z"/>
                <path class="cls-12" d="m301.94,187.94c-1.33,2.26-2.35,4.96-2.87,7.72-.25,1.33-.39,2.66-.39,3.97s.14,2.49.39,3.53c.52,2.16,1.54,3.68,2.87,4.41l4.63-12.48v-12.14c-1.73,1-3.33,2.79-4.63,5Z"/>
                <path class="cls-19" d="m314.07,187c.25,1.04.39,2.22.39,3.53s-.14,2.65-.39,3.97l-7.5.58,7.5-8.08Z"/>
                <path class="cls-19" d="m311.2,202.22c-1.3,2.21-2.9,4-4.63,5v-12.14l4.63,7.14Z"/>
              </g>
              <g>
                <path class="cls-13" d="m302.64,213.47l7.87-4.56c.4-.23.72-.07.72.36s-.32.97-.72,1.2l-7.87,4.56c-.4.23-.72.07-.72-.36s.32-.97.72-1.2Z"/>
                <path class="cls-17" d="m300.91,219.18l11.34-6.58c.4-.23.72-.07.72.36s-.32.97-.72,1.2l-11.34,6.58c-.4.23-.72.07-.72-.37,0-.43.32-.97.72-1.2Z"/>
                <path class="cls-17" d="m300.91,223.88l11.34-6.58c.4-.23.72-.07.72.36s-.32.97-.72,1.2l-11.34,6.58c-.4.23-.72.07-.72-.36,0-.43.32-.97.72-1.2Z"/>
                <path class="cls-17" d="m300.91,228.58l11.34-6.58c.4-.23.72-.07.72.36s-.32.97-.72,1.2l-11.34,6.58c-.4.23-.72.07-.72-.36,0-.43.32-.97.72-1.2Z"/>
              </g>
            </g>
          </g>
        </g>
      </g>
    </g>
  </g>
  <g id="Magnifying_Glass" data-name="Magnifying Glass">
    <g id="Glass">
      <g>
        <g>
          <path class="cls-19" d="m306.42,345.71c.13-3.85-2.42-8.62-5.69-10.66-1.61-1.01-3.1-1.15-4.21-.58h0c-6.69,3.35-53.71,33.5-56.71,34.99l-.04.02c-.56.3-.92.97-.95,1.94-.07,1.94,1.22,4.35,2.86,5.37.83.51,1.59.58,2.15.28l.04-.02c4.76-2.62,51.16-22.4,60.65-27.48,0,0,0,0,0,0,0,0,0,0,0,0h0c1.11-.6,1.83-1.93,1.89-3.85Z"/>
          <path class="cls-20" d="m304.57,339.21c-1.01-1.72-2.34-3.23-3.84-4.16-1.61-1-3.09-1.15-4.2-.59-.22.12-.29.16-.14.07-6.11,3.12-41.1,25.45-52.87,32.7-.03.02-.05.03-.08.05-.16.1-.32.2-.48.29-.05.03-.1.06-.14.09-.09.06-.18.11-.27.16-.11.06-.21.13-.32.19,0,0-.02,0-.02.01-1.25.76-2.09,1.26-2.41,1.42l-.04.02c-.1.05-.19.13-.28.21-.39.36-.65.93-.68,1.72,0,.22,0,.45.03.67,0,.09.03.17.04.26.02.14.05.27.08.41.03.11.05.22.09.33.04.13.08.26.13.39.03.1.07.19.1.29,0,.02.01.03.02.05l65.26-34.6Z"/>
          <path class="cls-19" d="m241.67,376.79c-1.64-1.02-2.92-3.42-2.85-5.35.06-1.93,1.45-2.67,3.09-1.65,1.64,1.02,2.92,3.42,2.85,5.35-.06,1.93-1.45,2.67-3.09,1.65Z"/>
        </g>
        <path class="cls-9" d="m227.62,378.08c-.05,1.48.93,3.32,2.19,4.11.63.39,1.2.45,1.63.22h0s0,0,0,0h0s11.37-6.05,11.37-6.05c0,0,0,0,0,0h0s0,0,0,0c.43-.23.7-.74.73-1.48.05-1.48-.93-3.32-2.19-4.11-.63-.39-1.21-.45-1.64-.22h0l-11.37,6.05h0c-.43.23-.71.74-.74,1.49Z"/>
        <path class="cls-22" d="m228.36,376.6c-.43.23-.71.74-.74,1.49-.02.56.11,1.17.34,1.75l14.67-7.82c-.35-.52-.79-.96-1.26-1.25-.63-.39-1.21-.45-1.64-.22l-11.37,6.05h0Z"/>
      </g>
      <g>
        <path class="cls-19" d="m242.21,388.18c0-7.29-4.82-14.58-14.45-20.14-19.26-11.12-50.49-11.12-69.75,0-9.63,5.56-14.45,12.85-14.45,20.14h0v13.42c0,7.29,4.82,14.58,14.45,20.14,19.26,11.12,50.49,11.12,69.75,0,9.63-5.56,14.45-12.85,14.45-20.14v-13.42h0Zm-81.81-16c8.6-4.97,20.14-7.7,32.49-7.7s23.89,2.74,32.49,7.7c7.78,4.49,12.06,10.17,12.06,16.01s-4.28,11.51-12.06,16c-8.6,4.97-20.14,7.7-32.49,7.7s-23.89-2.74-32.49-7.7c-7.78-4.49-12.06-10.17-12.06-16s4.28-11.52,12.06-16.01Z"/>
        <path class="cls-4" d="m158.01,408.31c19.26,11.12,50.49,11.12,69.75,0,19.26-11.12,19.26-29.15,0-40.27-19.26-11.12-50.49-11.12-69.75,0-19.26,11.12-19.26,29.15,0,40.27Zm-9.68-20.14c0-5.83,4.28-11.52,12.06-16.01,8.6-4.97,20.14-7.7,32.49-7.7s23.89,2.74,32.49,7.7c7.78,4.49,12.06,10.17,12.06,16.01s-4.28,11.51-12.06,16c-8.6,4.97-20.14,7.7-32.49,7.7s-23.89-2.74-32.49-7.7c-7.78-4.49-12.06-10.17-12.06-16Z"/>
        <g>
          <path class="cls-19" d="m148.33,388.18c0,2.29.66,4.54,1.93,6.72,1.96-3.39,5.4-6.56,10.14-9.29,8.6-4.97,20.14-7.71,32.49-7.71s23.89,2.74,32.48,7.71c4.74,2.73,8.19,5.91,10.15,9.29,1.26-2.18,1.92-4.43,1.92-6.72,0-5.83-4.28-11.51-12.07-16.01-8.6-4.96-20.14-7.7-32.48-7.7s-23.9,2.74-32.49,7.7c-7.78,4.49-12.07,10.18-12.07,16.01Z"/>
          <path class="cls-20" d="m148.33,388.18c0,2.29.66,4.54,1.93,6.72,1.96-3.39,5.4-6.56,10.14-9.29,8.6-4.97,20.14-7.71,32.49-7.71s23.89,2.74,32.48,7.71c4.74,2.73,8.19,5.91,10.15,9.29,1.26-2.18,1.92-4.43,1.92-6.72,0-5.83-4.28-11.51-12.07-16.01-8.6-4.96-20.14-7.7-32.48-7.7s-23.9,2.74-32.49,7.7c-7.78,4.49-12.07,10.18-12.07,16.01Z"/>
        </g>
        <path class="cls-3" d="m160.39,378.25c8.6-4.97,20.14-7.7,32.49-7.7s23.89,2.74,32.49,7.7c6.42,3.71,10.45,8.22,11.66,12.97-1.22,4.74-5.25,9.26-11.66,12.97-8.6,4.97-20.14,7.7-32.49,7.7s-23.89-2.74-32.49-7.7c-6.42-3.71-10.45-8.22-11.66-12.97,1.22-4.74,5.25-9.26,11.66-12.97Z"/>
        <path class="cls-20" d="m181.26,415.86v13.41c-8.52-1.18-16.6-3.69-23.25-7.54-9.64-5.56-14.45-12.85-14.45-20.14v-13.42c0-1.47.2-2.94.59-4.4h0c-2.34,8.67,2.28,17.85,13.85,24.54,6.65,3.84,14.73,6.35,23.25,7.55Z"/>
      </g>
    </g>
  </g>
  <g id="Character">
    <g id="Character-2" data-name="Character">
      <g>
        <path class="cls-22" d="m416.35,333.9c.58.24.71,1.36.75,3.59.03,1.69.32,4.64-1.66,5.19-1.99.54-4.88.18-6.11-1.44-1.54-2.02-2.57-3.79-4.77-6.26-1.91-2.14-3.98-4.15-4.71-7.12-.65-2.68-.03-3.82,1.8-4.55,2.52-1.01,6.37,2.56,8.31,3.15,1.68.51,5.8,7.21,6.39,7.45Z"/>
        <path class="cls-23" d="m416.39,331.83l-.06,2.74s-2.9,2.12-6.92.03c-.11-.27-.63-3.93-.63-3.93l7.61,1.16Z"/>
        <path class="cls-22" d="m393.82,349.17s.73,2.4,1.11,4.49c.3,1.66.72,4.44.11,5.67-.61,1.23-2.89,1.98-6.39,1.88-2.27-.07-5.84,1.39-8.29,2.69-2.53,1.34-7.75,1.78-10.39,1.41-3.11-.44-6.3-2.32-6.77-3.62-.48-1.3.22-2.63,7.64-5.59.07-.03,10.29-3.1,13.94-6.94l9.05.02Z"/>
        <path class="cls-23" d="m393.89,346.22s-.06,2.03-.07,3.19c-.02,1.16-1.43,2.86-4.97,2.65-2.49-.15-4.22-.85-4.07-2.91l.07-2.96,9.05.02Z"/>
        <path class="cls-9" d="m418.99,295.54c-1.05-8.97-2.91-14.33-2.91-14.33,0,0,1.25-12.28,1.99-23.93.79-12.59,1.52-19.07-.95-37.25,0,0-38.59-3.47-39.64,11.08-1.05,14.55.44,51.67.78,58.08.34,6.41,1.31,12.09,2.4,22.49,1.07,10.26,4.19,34.51,4.19,34.51,4.59,2.61,9.05.02,9.05.02,0,0,3.52-29.05,3.38-36.44-.16-9.02-2.44-16.18-2.44-16.18,0,0,1.04-11.99,1.96-22.42.92-10.43,1.75-15.43,2.01-19.97l.88-.41s.49,18.04.82,24.45c.34,6.41,1.22,12.57,2.8,24.49,1.37,10.34,5.66,32.26,5.66,32.26,4.59,2.62,7.42-.16,7.42-.16,0,0,3.65-27.32,2.6-36.29Z"/>
        <path class="cls-22" d="m398.8,251.21s9.97-4.64,15.01-8.91c0,0-4.73,6.35-10.81,9.08,0,0-2.64,22.34-2.62,21.89l-.74-22.08h-.84Z"/>
      </g>
      <g>
        <polygon class="cls-23" points="391.89 168.18 393.39 181.51 405.97 180.87 404.58 165.32 391.89 168.18"/>
        <g>
          <path class="cls-9" d="m410.72,173.29c4.68-.22,7.06.49,9.17,4.53,2.1,4.04,2.93,16.11,3.66,22.34.73,6.22.92,10.62-1.65,11.26s-12.54.91-12.54.91l1.36-39.04Z"/>
          <path class="cls-13" d="m418.63,180.19c-.68-3.73-5.58-7.65-10.17-6.9-1.07.17-2.1.35-3.12.53-.55,2.24-6.69,3.64-12.56,2.26-1.77.46-7.59,1.55-9.06,2.04-4.22,1.4-5.96,5.55-6.61,19.31,0,0,.34,31.15.17,37.35,10.41,4.39,21.34,4.51,27.41,3.33,12.63-2.46,14.27-7.65,14.27-7.65l-1.88-14.25s3.09-27.59,1.55-36.02Z"/>
          <path class="cls-9" d="m392.38,172.58l.09.84s3.64.91,7.73,0,4.91-2.06,4.91-2.06l-.09-.95s1.02-.38,1.55,1.19c.53,1.57.59,1.91.59,1.91,0,0,.47,2.86-4.34,4.32-6.92,2.1-11.97-1.31-11.97-1.31l-1.88.4s1.63-3.76,2.12-4.52c.49-.76,1.18-.65,1.18-.65l.09.84Z"/>
          <g>
            <polygon class="cls-13" points="353.97 158.29 329.02 171.31 341.42 205.21 364.7 192.17 353.97 158.29"/>
            <polygon class="cls-11" points="352.83 161.61 331.89 172.53 342.87 201.68 362.4 190.73 352.83 161.61"/>
            <path class="cls-18" d="m348.41,164.75s-.18-.46-.41-1.04c-.22-.57-1.97-.23-3.89.76l-3.69,1.9c-1.93.99-3.3,2.26-3.08,2.84l.41,1.04,10.66-5.5Z"/>
            <g>
              <path class="cls-19" d="m348.01,160.61c-.14-.36-.9-.3-1.69.13l-1.44.78s-.89-2.24-4.21-.69c-3.32,1.55-2.56,4.15-2.56,4.15,0,0-.69.38-1.53.84-.85.47-1.45,1.14-1.35,1.5l.19.66,12.85-6.71s-.12-.31-.25-.67Z"/>
              <path class="cls-19" d="m346.62,162.11c-1.2.59-1.67.87-1.32,1.75.39,1.01.76,1.73.76,1.73l-5.68,2.97s-.47-1.28-.68-1.78c-.21-.49-.62-.73-1.53-.26l-.34-.36,8.97-4.57-.17.5Z"/>
              <path class="cls-12" d="m346.62,162.11c-1.2.59-1.67.87-1.32,1.75.39,1.01.76,1.73.76,1.73l-5.68,2.97s-.47-1.28-.68-1.78c-.21-.49-.62-.73-1.53-.26l-.34-.36,8.97-4.57-.17.5Z"/>
              <path class="cls-19" d="m348.65,164.81s-.18-.46-.41-1.04c-.22-.57-1.97-.23-3.89.76l-3.69,1.9c-1.93.99-3.3,2.26-3.08,2.84l.41,1.04,10.66-5.5Z"/>
            </g>
          </g>
          <path class="cls-23" d="m383.71,178.12c-5.76.5-8.21,1.55-12.54,9.35-4.69,8.46-13.71,23.78-14.86,25.71-1.59,2.69-1.89,6.78-.52,9.25,1.28,2.31,5.35,3.36,9.97-1.85,5.49-6.2,15.7-21.34,15.7-21.34,0,0,8.67-11.44,2.25-21.12Z"/>
          <path class="cls-23" d="m358.19,224.21c-4.42-.54-14.73-14.53-17.66-19.1-3.21-5-6.2-7.41-8.93-9.43-4.67-3.45-3.99-8.76-1.95-13.62.71-1.68,3.1-.59,3.1-.59l.84,2.31,1.46,4c.99.92,1.55,1.22,1.62.94.12-.52-.73-2.66-.71-4.9.03-2.69,1.91-.92,2.48.02.56.94,1.22,2.48,1.99,4.45.94,2.41.55,4.85,1.7,6.5,1.15,1.64,16.53,16.38,16.53,16.38l-.47,13.04Z"/>
          <path class="cls-9" d="m384.82,177.82c-3.49-.09-7.68.47-10.93,4.69-3.25,4.22-16.25,27.17-16.25,27.17l-7.3-6.54s-4.59,2.65-5.61,7.93c0,0,3.52,5.58,6.61,8.97,3.08,3.38,6.52,5.73,9.34,4.69,2.82-1.04,5.7-3.27,11.77-11.73,6.07-8.45,12.7-18.43,12.7-18.43,0,0,4.18-9.75-.33-16.75Z"/>
        </g>
        <path class="cls-16" d="m383.02,151.87s-3.14,4.77-2.78,5.23c.36.47,2.67.89,2.67.89l.11-6.13Z"/>
        <path class="cls-22" d="m384.49,154.94c-2.06,0-3.74-1.68-3.74-3.74s1.68-3.74,3.74-3.74,3.74,1.68,3.74,3.74-1.68,3.74-3.74,3.74Zm0-6.65c-1.61,0-2.91,1.31-2.91,2.91s1.31,2.91,2.91,2.91,2.91-1.31,2.91-2.91-1.31-2.91-2.91-2.91Z"/>
        <path class="cls-23" d="m391.75,138.69c-6.36,1.34-8.19,4.14-8.79,14.23-.63,10.55.45,13.87,1.84,15.29.94.96,6.14,1.13,8.76.41,3.28-.91,10.7-3.53,14.18-8.84,4.09-6.24,5.16-14.71.78-18.18-6.16-4.89-14.18-3.46-16.77-2.91Z"/>
        <path class="cls-16" d="m391.97,168.92l-.29-1.94s-3.06,1.76-6.52,1.48c1.21.6,4.38.77,6.81.47Z"/>
        <polygon class="cls-22" points="381.1 150.41 392.4 151.87 391.95 152.67 381.1 151.26 381.1 150.41"/>
        <g>
          <path class="cls-22" d="m381.87,142.76c.48.07.97.04,1.44-.09-.42.9-.02,2.05.77,2.65.8.6,1.9.68,2.85.38-.34.59-.46,1.3-.31,1.97.3,1.38,1.86,2.58,3.29,2.38.07,1.48.09,2.92,1.66,3.6,0,0,1-3.9,4.29-3.41,3.31.49,3.76,4.71,1.67,7.27-2.07,2.55-4,1.59-4.03,1.58.19.1.26,1.34.33,1.58.21.73.49,1.46.85,2.13.71,1.37,1.73,2.57,2.97,3.49,1.72,1.27,3.82,2.18,5.97,1.66,1.86-.45,3.56-1.73,4.35-3.5.2-.44.36-.93.71-1.26.43-.41,1.06-.51,1.62-.7,1.3-.44,2.38-1.47,2.89-2.74.51-1.27.43-2.76-.2-3.98,1.56-.4,2.84-1.72,3.19-3.29.34-1.57-.27-3.31-1.52-4.33,1.86-1.14,2.83-3.57,2.25-5.68-.49-1.81-2-3.1-3.76-3.6-1.28-.37-.79-.57-1.19-1.83-.27-.86-.78-1.64-1.48-2.21-1.2-.98-2.91-1.3-4.38-.81-.28-1.64-1.59-2.97-3.17-3.41-.72-.2-1.51-.28-2.24-.09-.53.14-1.61.63-1.81,1.13-.67-.66-.89-1.53-1.7-2.12-.83-.61-1.85-.96-2.89-.96-1.71,0-3.38.99-4.21,2.48-1.14-1.2-2.79-1.94-4.44-1.87-1.65.07-3.28,1.01-4.05,2.47-.77,1.46-.59,3.41.54,4.62-1.02.43-1.96,1.14-2.46,2.12-.54,1.07-.47,2.41.35,3.32.39.44.65.73,1.24.92.2.06.4.11.6.14Z"/>
          <path class="cls-22" d="m391.51,155.86l.12-4.41c-1.22-.03-2.23.93-2.27,2.15-.03,1.22.93,2.23,2.15,2.27Z"/>
        </g>
      </g>
    </g>
  </g>
</svg>