<?xml version="1.0" encoding="UTF-8"?>
<svg xmlns="http://www.w3.org/2000/svg" xmlns:xlink="http://www.w3.org/1999/xlink" viewBox="0 0 395.9 468.67">
  <defs>
    <style>
      .cls-1 {
        fill: #fff;
      }

      .cls-2 {
        isolation: isolate;
      }

      .cls-3 {
        fill: #046;
      }

      .cls-4 {
        fill: url(#Degradado_sin_nombre_18);
      }

      .cls-4, .cls-5 {
        mix-blend-mode: multiply;
        opacity: .4;
      }

      .cls-5 {
        fill: url(#Degradado_sin_nombre_18-2);
      }

      .cls-6 {
        fill: #fa5361;
      }
    </style>
    <radialGradient id="Degradado_sin_nombre_18" data-name="Degradado sin nombre 18" cx="83.49" cy="44.21" fx="83.49" fy="44.21" r="14.1" gradientTransform="scale(3.26 3.24)" gradientUnits="userSpaceOnUse">
      <stop offset="0" stop-color="#43596e" stop-opacity="0"/>
      <stop offset="1" stop-color="#479afc" stop-opacity=".97"/>
      <stop offset="1" stop-color="#9eeeff"/>
    </radialGradient>
    <radialGradient id="Degradado_sin_nombre_18-2" data-name="Degradado sin nombre 18" cx="74.18" cy="72.61" fx="74.18" fy="72.61" r="60.73" xlink:href="#Degradado_sin_nombre_18"/>
  </defs>
  <g class="cls-2">
    <g id="Layer_1" data-name="Layer 1">
      <g>
        <path class="cls-1" d="m388.95,143.46c-15.76,81.19-57.5,157.13-116.42,215.85-2.41,2.4-4.89,4.8-7.36,7.14-3.47,3.3-6.97,6.51-10.53,9.66-.57.51-3.38,3.03-7.52,6.75-15.91,14.1-51.46,45.16-55.14,42.67l-64.44-43.69-13.34-9.06-14.43-9.78-63.69-43.18s8.03-38.32,30.24-86.44c18.92-40.99,48.17-89.14,91.54-126.68,29.07-25.14,60.49-45.91,90.43-62.23C315.34,7.9,375.16-6.32,385.24,2.59c6.73,5.97,7.36,20.22,8.3,28.29.3,2.49.57,5.01.81,7.5,3.29,35.38,1.27,70.69-5.4,105.08Z"/>
        <path class="cls-6" d="m388.94,143.45c-46.6-72.23-102.38-93.66-140.63-98.99C315.34,7.91,375.15-6.34,385.23,2.58c6.74,5.99,7.37,20.23,8.3,28.31.31,2.48.58,5.01.8,7.5,3.3,35.36,1.29,70.68-5.4,105.06Z"/>
        <ellipse class="cls-4" cx="272.54" cy="143.45" rx="46.04" ry="45.76"/>
        <ellipse class="cls-3" cx="272.54" cy="143.45" rx="31.15" ry="30.97"/>
        <path class="cls-1" d="m72.16,240.77s-19.79-13.31-37.26,0c-17.46,13.31-43.66,79.02-32.02,85.52,11.64,6.5,36.09-69.31,50.06-61.79,13.97,7.52,19.21-23.73,19.21-23.73Z"/>
        <path class="cls-1" d="m267.83,422.56c-33.2,34.78-61.85,53.26-66.19,43.54-6.4-14.34,61.3-60.91,45.49-83.23-.36-.54-.78-1.05-1.24-1.56-2.26-2.4-3.95-5.37-4.04-8.67-.48-16.26,18.02-10.14,18.02-10.14,0,0,2.26,1.38,5.31,3.96,9.9,8.43,28.07,29.49,2.66,56.11Z"/>
        <path class="cls-1" d="m285.09,43.46c0,.88-.71,1.59-1.6,1.59s-1.6-.71-1.6-1.59.71-1.59,1.6-1.59,1.6.71,1.6,1.59Z"/>
        <path class="cls-1" d="m318.58,55.37c0,.88-.71,1.59-1.6,1.59s-1.6-.71-1.6-1.59.71-1.59,1.6-1.59,1.6.71,1.6,1.59Z"/>
        <path class="cls-1" d="m357.74,81.16c0,.88-.71,1.59-1.6,1.59s-1.6-.71-1.6-1.59.71-1.59,1.6-1.59,1.6.71,1.6,1.59Z"/>
        <path class="cls-6" d="m272.54,359.3c-5.8,5.77-11.78,11.4-17.9,16.82-2.81,2.48-58.02,52.58-62.66,49.43l-155.9-105.73s8.03-38.29,30.26-86.43c36.64,6.88,136.62,33.5,206.2,125.92Z"/>
        <path class="cls-1" d="m175.65,323.22c-4.8,8.76-27.26,36.07-48.11,58.63-17.9,19.32-34.62,35.17-38.09,32.98-1.03-.63-1.27-3.12-.91-6.99.88-9.27,5.31-26.46,11.23-44.83,9.78-30.27,23.57-63.79,32.02-70.36,8.39-6.51,18.56-9.84,26.17-11.55,6.76-1.47,13.55,2.16,16,8.58.12.33.24.66.36.99,3.44,9.48,6.55,22.95,1.33,32.56Z"/>
        <path class="cls-5" d="m272.54,359.31c-2.41,2.4-4.89,4.8-7.36,7.14,9.9,8.43,28.07,29.49,2.66,56.11-33.2,34.78-61.85,53.26-66.19,43.54-6.4-14.34,61.3-60.91,45.49-83.23-15.91,14.1-51.46,45.16-55.14,42.67l-64.44-43.69c-17.9,19.32-34.62,35.17-38.09,32.98-1.03-.63-1.27-3.12-.91-6.99l25.66-35.05,60.12-82.12L385.24,2.59c6.73,5.97,7.36,20.22,8.3,28.29.3,2.49.57,5.01.81,7.5,3.29,35.38,1.27,70.69-5.4,105.08-15.76,81.19-57.5,157.13-116.42,215.85Z"/>
        <path class="cls-1" d="m215.97,386.84c0,.87-.71,1.57-1.58,1.57s-1.58-.7-1.58-1.57.71-1.57,1.58-1.57,1.58.7,1.58,1.57Z"/>
        <path class="cls-1" d="m187.16,364.97c0,.87-.71,1.57-1.58,1.57s-1.58-.7-1.58-1.57.71-1.57,1.58-1.57,1.58.7,1.58,1.57Z"/>
        <path class="cls-1" d="m103.27,306.61c0,.87-.71,1.57-1.58,1.57s-1.58-.7-1.58-1.57.71-1.57,1.58-1.57,1.58.7,1.58,1.57Z"/>
        <path class="cls-1" d="m70.83,292.96c0,.87-.71,1.57-1.58,1.57s-1.58-.7-1.58-1.57.71-1.57,1.58-1.57,1.58.7,1.58,1.57Z"/>
      </g>
    </g>
  </g>
</svg>