<?xml version="1.0" encoding="UTF-8"?>
<svg xmlns="http://www.w3.org/2000/svg" xmlns:xlink="http://www.w3.org/1999/xlink" viewBox="0 0 490 437.92">
  <defs>
    <style>
      .cls-1 {
        fill: #26264f;
      }

      .cls-2 {
        fill: url(#linear-gradient-2);
      }

      .cls-3 {
        fill: url(#linear-gradient-51);
      }

      .cls-4 {
        fill: #fff;
      }

      .cls-5 {
        fill: url(#linear-gradient-17);
      }

      .cls-6 {
        fill: url(#linear-gradient-43);
      }

      .cls-7 {
        fill: url(#linear-gradient-9);
      }

      .cls-7, .cls-8, .cls-9, .cls-10, .cls-11, .cls-12, .cls-13 {
        mix-blend-mode: multiply;
      }

      .cls-7, .cls-8, .cls-10, .cls-11, .cls-13 {
        opacity: .3;
      }

      .cls-14 {
        fill: url(#linear-gradient-15);
      }

      .cls-15 {
        fill: url(#linear-gradient-58);
      }

      .cls-16 {
        fill: url(#linear-gradient-69);
      }

      .cls-17 {
        fill: url(#linear-gradient-18);
      }

      .cls-18 {
        fill: url(#linear-gradient-56);
      }

      .cls-19 {
        fill: url(#linear-gradient-40);
      }

      .cls-20 {
        fill: url(#linear-gradient-52);
      }

      .cls-21 {
        fill: url(#linear-gradient-28);
      }

      .cls-22 {
        fill: url(#linear-gradient-14);
      }

      .cls-23 {
        fill: url(#linear-gradient-36);
      }

      .cls-24 {
        fill: url(#linear-gradient-6);
      }

      .cls-25 {
        clip-path: url(#clippath-2);
      }

      .cls-26 {
        fill: url(#linear-gradient-53);
      }

      .cls-27 {
        isolation: isolate;
      }

      .cls-8 {
        fill: url(#linear-gradient-20);
      }

      .cls-28 {
        fill: url(#linear-gradient-35);
      }

      .cls-29 {
        fill: url(#linear-gradient-48);
      }

      .cls-30 {
        fill: url(#linear-gradient-32);
      }

      .cls-31 {
        fill: url(#linear-gradient-11);
      }

      .cls-32 {
        fill: url(#linear-gradient-50);
      }

      .cls-33 {
        mix-blend-mode: soft-light;
      }

      .cls-34 {
        fill: url(#linear-gradient-63);
      }

      .cls-35 {
        fill: url(#linear-gradient-67);
      }

      .cls-9 {
        opacity: .15;
      }

      .cls-36 {
        fill: url(#linear-gradient-39);
      }

      .cls-37 {
        clip-path: url(#clippath-1);
      }

      .cls-38 {
        fill: url(#linear-gradient-10);
      }

      .cls-10 {
        fill: url(#linear-gradient-60);
      }

      .cls-39 {
        fill: url(#linear-gradient-59);
      }

      .cls-40 {
        fill: url(#linear-gradient-49);
      }

      .cls-41 {
        fill: url(#linear-gradient-37);
      }

      .cls-42 {
        fill: url(#linear-gradient-16);
      }

      .cls-43 {
        fill: url(#linear-gradient-31);
      }

      .cls-44 {
        fill: url(#linear-gradient-61);
      }

      .cls-45 {
        fill: url(#linear-gradient-68);
      }

      .cls-46 {
        fill: url(#linear-gradient-62);
      }

      .cls-47 {
        fill: url(#linear-gradient-41);
      }

      .cls-48 {
        fill: #d8dee8;
      }

      .cls-49 {
        fill: url(#linear-gradient-21);
      }

      .cls-50 {
        fill: url(#linear-gradient-25);
      }

      .cls-51 {
        fill: #fcb048;
      }

      .cls-12 {
        opacity: .4;
      }

      .cls-12, .cls-52 {
        fill: #f4f7fa;
      }

      .cls-53 {
        fill: url(#linear-gradient-5);
      }

      .cls-54 {
        fill: url(#linear-gradient-64);
      }

      .cls-55 {
        fill: url(#linear-gradient-54);
      }

      .cls-56 {
        fill: url(#linear-gradient-45);
      }

      .cls-57 {
        fill: url(#linear-gradient-55);
      }

      .cls-58 {
        clip-path: url(#clippath);
      }

      .cls-13 {
        fill: url(#linear-gradient-19);
      }

      .cls-59 {
        fill: url(#linear-gradient-34);
      }

      .cls-60 {
        fill: url(#linear-gradient-65);
      }

      .cls-61 {
        fill: url(#linear-gradient-7);
      }

      .cls-62 {
        fill: url(#linear-gradient-66);
      }

      .cls-63 {
        fill: url(#linear-gradient-24);
      }

      .cls-64 {
        fill: url(#linear-gradient-22);
      }

      .cls-65 {
        fill: url(#linear-gradient-42);
      }

      .cls-66 {
        fill: url(#linear-gradient-3);
      }

      .cls-67 {
        fill: url(#linear-gradient);
      }

      .cls-68 {
        fill: url(#linear-gradient-27);
      }

      .cls-69 {
        fill: url(#linear-gradient-33);
      }

      .cls-70 {
        fill: url(#linear-gradient-38);
      }

      .cls-71 {
        fill: url(#linear-gradient-29);
      }

      .cls-72 {
        fill: url(#linear-gradient-30);
      }

      .cls-73 {
        fill: url(#linear-gradient-23);
      }

      .cls-74 {
        fill: url(#linear-gradient-4);
      }

      .cls-75 {
        fill: url(#linear-gradient-8);
      }

      .cls-76 {
        fill: url(#linear-gradient-44);
      }

      .cls-77 {
        fill: url(#linear-gradient-57);
      }

      .cls-78 {
        fill: url(#linear-gradient-47);
      }

      .cls-79 {
        fill: url(#linear-gradient-46);
      }

      .cls-80 {
        fill: url(#linear-gradient-12);
      }

      .cls-81 {
        fill: url(#linear-gradient-13);
      }

      .cls-82 {
        fill: url(#linear-gradient-26);
      }
    </style>
    <linearGradient id="linear-gradient" x1="329.59" y1="80.05" x2="408.14" y2="329.97" gradientUnits="userSpaceOnUse">
      <stop offset="0" stop-color="#ff9085"/>
      <stop offset="1" stop-color="#fb6fbb"/>
    </linearGradient>
    <clipPath id="clippath">
      <path class="cls-67" d="m374.97,372.09c-14.64-14.92-33.74-38.93-40.09-71.16-7.3-37.02,8.88-51.05,9.13-93.65.36-60.8-45.5-87.5-27.26-112.9,8.89-12.39,28.61-19.81,44.44-16.68,45.15,8.92,81.17,108.19,43.89,166.23-16.86,26.25-39.54,32.42-47.82,61.3-7.32,25.52,6.1,50.51,17.71,66.87Z"/>
    </clipPath>
    <linearGradient id="linear-gradient-2" x1="479.04" y1="114.99" x2="584.75" y2="-76.49" gradientUnits="userSpaceOnUse">
      <stop offset="0" stop-color="#e38ddd"/>
      <stop offset="1" stop-color="#9571f6"/>
    </linearGradient>
    <clipPath id="clippath-1">
      <path class="cls-2" d="m342.22,352.38c-7.7-10.83-17.6-28.54-14.68-48.8,5.1-35.36,43.46-38.69,61.44-81.28,14.5-34.35-2.81-50.29,18.43-77.49,3.56-4.55,22.06-29.2,45.42-27.33,13.17,1.05,22.03,10.04,23.7,11.73,25.16,25.51,13.27,84.72-20.91,122.62-19.64,21.77-29.75,20.87-67.76,51.94-22.33,18.26-36.97,36.46-45.65,48.61Z"/>
    </clipPath>
    <linearGradient id="linear-gradient-3" x1="-3002.29" y1="-821.76" x2="-3199.06" y2="-660.13" gradientTransform="translate(3527.25 849.13) rotate(-3.96)" gradientUnits="userSpaceOnUse">
      <stop offset="0" stop-color="#aa80f9"/>
      <stop offset="1" stop-color="#6165d7"/>
    </linearGradient>
    <linearGradient id="linear-gradient-4" x1="746.32" y1="1698.81" x2="928.91" y2="2095.34" xlink:href="#linear-gradient-2"/>
    <linearGradient id="linear-gradient-5" x1="746.32" y1="1698.81" x2="928.91" y2="2095.34" xlink:href="#linear-gradient-2"/>
    <clipPath id="clippath-2">
      <path class="cls-53" d="m164.35,397.39c7.7-10.83,17.6-28.54,14.68-48.8-5.1-35.36-43.46-38.69-61.44-81.28-14.5-34.35,2.81-50.29-18.43-77.49-3.56-4.55-22.06-29.2-45.42-27.33-13.17,1.05-22.03,10.04-23.7,11.73-25.16,25.51-13.27,84.72,20.91,122.62,19.64,21.77,29.75,20.87,67.76,51.94,22.33,18.26,36.97,36.46,45.65,48.61Z"/>
    </clipPath>
    <linearGradient id="linear-gradient-6" x1="-567.63" y1="-608.23" x2="-764.4" y2="-446.6" gradientTransform="translate(-577.38 849.13) rotate(-176.04) scale(1 -1)" xlink:href="#linear-gradient"/>
    <linearGradient id="linear-gradient-7" x1="80.63" y1="90.77" x2="204.79" y2="85.37" gradientUnits="userSpaceOnUse">
      <stop offset="0" stop-color="#ab316d"/>
      <stop offset="1" stop-color="#792d3d"/>
    </linearGradient>
    <linearGradient id="linear-gradient-8" x1="67.33" y1="269.72" x2="183.46" y2="269.72" gradientUnits="userSpaceOnUse">
      <stop offset="0" stop-color="#ffc444"/>
      <stop offset="1" stop-color="#f36f56"/>
    </linearGradient>
    <linearGradient id="linear-gradient-9" x1="98.68" y1="269.72" y2="269.72" xlink:href="#linear-gradient-8"/>
    <linearGradient id="linear-gradient-10" x1="242.88" y1="252.53" x2="432.34" y2="571.74" xlink:href="#linear-gradient-8"/>
    <linearGradient id="linear-gradient-11" x1="243.59" y1="226.61" x2="393.98" y2="579.79" xlink:href="#linear-gradient-8"/>
    <linearGradient id="linear-gradient-12" x1="268.89" y1="-9.99" x2="220.7" y2="401.37" xlink:href="#linear-gradient-7"/>
    <linearGradient id="linear-gradient-13" x1="289.79" y1="-30.59" x2="147.43" y2="240.24" xlink:href="#linear-gradient-7"/>
    <linearGradient id="linear-gradient-14" x1="390.83" y1="20.16" x2="248.47" y2="290.99" xlink:href="#linear-gradient-7"/>
    <linearGradient id="linear-gradient-15" x1="17.35" y1="336.28" x2="52.6" y2="341.95" gradientTransform="matrix(1, 0, 0, 1, 0, 0)" xlink:href="#linear-gradient-3"/>
    <linearGradient id="linear-gradient-16" x1="150.22" y1="336.76" x2="290.47" y2="504.21" gradientTransform="matrix(1, 0, 0, 1, 0, 0)" xlink:href="#linear-gradient-3"/>
    <linearGradient id="linear-gradient-17" x1="111.49" y1="379.55" x2="304.32" y2="440.44" gradientUnits="userSpaceOnUse">
      <stop offset="0" stop-color="#444b8c"/>
      <stop offset="1" stop-color="#26264f"/>
    </linearGradient>
    <linearGradient id="linear-gradient-18" x1="95.15" y1="328.62" x2="192.97" y2="328.62" gradientTransform="translate(-13.11 12.52) rotate(.87)" xlink:href="#linear-gradient"/>
    <linearGradient id="linear-gradient-19" x1="143.91" y1="256.97" x2="283.97" y2="424.2" gradientTransform="matrix(1, 0, 0, 1, 0, 0)" xlink:href="#linear-gradient-3"/>
    <linearGradient id="linear-gradient-20" x1="187.56" y1="385.01" x2="283.71" y2="385.01" gradientTransform="matrix(1, 0, 0, 1, 0, 0)" xlink:href="#linear-gradient-3"/>
    <linearGradient id="linear-gradient-21" x1="42.8" y1="430.13" x2="139.04" y2="430.13" gradientUnits="userSpaceOnUse">
      <stop offset="0" stop-color="#fcb148"/>
      <stop offset=".05" stop-color="#fdb946"/>
      <stop offset=".14" stop-color="#fec144"/>
      <stop offset=".32" stop-color="#ffc444"/>
      <stop offset=".48" stop-color="#fdb946"/>
      <stop offset=".78" stop-color="#f99c4c"/>
      <stop offset=".87" stop-color="#f8924f"/>
      <stop offset="1" stop-color="#f8924f"/>
    </linearGradient>
    <linearGradient id="linear-gradient-22" x1="91.39" y1="420.31" x2="96.16" y2="460.3" gradientUnits="userSpaceOnUse">
      <stop offset="0" stop-color="#ffdb44"/>
      <stop offset="1" stop-color="#feef06"/>
    </linearGradient>
    <linearGradient id="linear-gradient-23" x1="91.15" y1="418.26" x2="92.64" y2="430.79" xlink:href="#linear-gradient-22"/>
    <linearGradient id="linear-gradient-24" x1="-1809.35" y1="919.89" x2="-1807.85" y2="932.43" gradientTransform="translate(-1716.75 1349.69) rotate(-180)" gradientUnits="userSpaceOnUse">
      <stop offset="0" stop-color="#f36f56"/>
      <stop offset=".31" stop-color="#f99c4c"/>
      <stop offset=".55" stop-color="#fdb946"/>
      <stop offset=".68" stop-color="#ffc444"/>
      <stop offset=".8" stop-color="#fec144"/>
      <stop offset=".87" stop-color="#fdb946"/>
      <stop offset=".92" stop-color="#fbac49"/>
      <stop offset=".96" stop-color="#f8994d"/>
      <stop offset="1" stop-color="#f58152"/>
      <stop offset="1" stop-color="#f57e53"/>
    </linearGradient>
    <linearGradient id="linear-gradient-25" x1="31.17" y1="421.47" x2="127.41" y2="421.47" xlink:href="#linear-gradient-21"/>
    <linearGradient id="linear-gradient-26" x1="79.76" y1="411.65" x2="84.53" y2="451.64" xlink:href="#linear-gradient-22"/>
    <linearGradient id="linear-gradient-27" x1="79.52" y1="409.6" x2="81.01" y2="422.12" xlink:href="#linear-gradient-22"/>
    <linearGradient id="linear-gradient-28" x1="-1797.72" y1="928.55" x2="-1796.22" y2="941.1" xlink:href="#linear-gradient-24"/>
    <linearGradient id="linear-gradient-29" x1="41.2" y1="412.83" x2="137.45" y2="412.83" xlink:href="#linear-gradient-21"/>
    <linearGradient id="linear-gradient-30" x1="89.79" y1="403.01" x2="94.57" y2="443" xlink:href="#linear-gradient-22"/>
    <linearGradient id="linear-gradient-31" x1="89.55" y1="400.96" x2="91.05" y2="413.49" xlink:href="#linear-gradient-22"/>
    <linearGradient id="linear-gradient-32" x1="-1807.75" y1="937.19" x2="-1806.25" y2="949.74" xlink:href="#linear-gradient-24"/>
    <linearGradient id="linear-gradient-33" x1="47.29" y1="404.16" x2="143.53" y2="404.16" xlink:href="#linear-gradient-21"/>
    <linearGradient id="linear-gradient-34" x1="95.88" y1="394.34" x2="100.66" y2="434.34" xlink:href="#linear-gradient-22"/>
    <linearGradient id="linear-gradient-35" x1="95.64" y1="392.3" x2="97.14" y2="404.82" xlink:href="#linear-gradient-22"/>
    <linearGradient id="linear-gradient-36" x1="-1813.84" y1="945.86" x2="-1812.34" y2="958.4" xlink:href="#linear-gradient-24"/>
    <linearGradient id="linear-gradient-37" y1="394.82" y2="394.82" xlink:href="#linear-gradient-21"/>
    <linearGradient id="linear-gradient-38" x1="91.39" y1="385" x2="96.16" y2="424.99" xlink:href="#linear-gradient-22"/>
    <linearGradient id="linear-gradient-39" x1="91.15" y1="382.95" x2="92.64" y2="395.47" xlink:href="#linear-gradient-22"/>
    <linearGradient id="linear-gradient-40" x1="-1809.35" y1="955.2" x2="-1807.85" y2="967.75" xlink:href="#linear-gradient-24"/>
    <linearGradient id="linear-gradient-41" x1="31.17" y1="386.15" x2="127.41" y2="386.15" xlink:href="#linear-gradient-21"/>
    <linearGradient id="linear-gradient-42" x1="79.76" y1="376.33" x2="84.53" y2="416.32" xlink:href="#linear-gradient-22"/>
    <linearGradient id="linear-gradient-43" x1="79.52" y1="374.29" x2="81.01" y2="386.81" xlink:href="#linear-gradient-22"/>
    <linearGradient id="linear-gradient-44" x1="-1797.72" y1="963.87" x2="-1796.22" y2="976.41" xlink:href="#linear-gradient-24"/>
    <linearGradient id="linear-gradient-45" x1="41.2" y1="377.51" x2="137.45" y2="377.51" xlink:href="#linear-gradient-21"/>
    <linearGradient id="linear-gradient-46" x1="89.79" y1="367.69" x2="94.57" y2="407.69" xlink:href="#linear-gradient-22"/>
    <linearGradient id="linear-gradient-47" x1="89.55" y1="365.65" x2="91.05" y2="378.17" xlink:href="#linear-gradient-22"/>
    <linearGradient id="linear-gradient-48" x1="-1807.75" y1="972.51" x2="-1806.25" y2="985.05" xlink:href="#linear-gradient-24"/>
    <linearGradient id="linear-gradient-49" x1="35.98" y1="368.85" x2="132.23" y2="368.85" xlink:href="#linear-gradient-21"/>
    <linearGradient id="linear-gradient-50" x1="84.57" y1="359.03" x2="89.35" y2="399.02" xlink:href="#linear-gradient-22"/>
    <linearGradient id="linear-gradient-51" x1="84.33" y1="356.98" x2="85.83" y2="369.51" xlink:href="#linear-gradient-22"/>
    <linearGradient id="linear-gradient-52" x1="-1802.53" y1="981.17" x2="-1801.03" y2="993.71" xlink:href="#linear-gradient-24"/>
    <linearGradient id="linear-gradient-53" x1="-302.31" y1="78.77" x2="-212.59" y2="78.77" gradientTransform="translate(370.68 565.32) rotate(54.58)" xlink:href="#linear-gradient-21"/>
    <linearGradient id="linear-gradient-54" x1="-256.73" y1="69.85" x2="-252.78" y2="102.88" gradientTransform="translate(370.68 565.32) rotate(54.58)" xlink:href="#linear-gradient-22"/>
    <linearGradient id="linear-gradient-55" x1="-256.74" y1="69.71" x2="-255.68" y2="78.58" gradientTransform="translate(370.68 565.32) rotate(54.58)" xlink:href="#linear-gradient-22"/>
    <linearGradient id="linear-gradient-56" x1="-1460.26" y1="1273.2" x2="-1459.24" y2="1281.78" gradientTransform="translate(-1723.51 -51.19) rotate(-125.42)" xlink:href="#linear-gradient-24"/>
    <linearGradient id="linear-gradient-57" x1="313.91" y1="308.09" x2="349.13" y2="361.33" gradientTransform="matrix(1, 0, 0, 1, 0, 0)" xlink:href="#linear-gradient-3"/>
    <linearGradient id="linear-gradient-58" x1="427.53" y1="339.81" x2="376.07" y2="426.72" gradientTransform="matrix(1, 0, 0, 1, 0, 0)" xlink:href="#linear-gradient-3"/>
    <linearGradient id="linear-gradient-59" x1="388.54" y1="311.59" x2="379.65" y2="342.9" xlink:href="#linear-gradient-2"/>
    <linearGradient id="linear-gradient-60" x1="431.48" y1="342.14" x2="380.31" y2="428.57" xlink:href="#linear-gradient-2"/>
    <linearGradient id="linear-gradient-61" x1="398.59" y1="343.46" x2="418.89" y2="445.71" xlink:href="#linear-gradient-7"/>
    <linearGradient id="linear-gradient-62" x1="401.47" y1="375.31" x2="439.87" y2="369.63" xlink:href="#linear-gradient-7"/>
    <linearGradient id="linear-gradient-63" x1="349.11" y1="374.53" x2="385.78" y2="369.1" xlink:href="#linear-gradient-7"/>
    <linearGradient id="linear-gradient-64" x1="374.25" y1="339.28" x2="459.64" y2="326.66" xlink:href="#linear-gradient-7"/>
    <linearGradient id="linear-gradient-65" x1="416.69" y1="316.38" x2="396.75" y2="337.12" xlink:href="#linear-gradient-7"/>
    <linearGradient id="linear-gradient-66" x1="420.5" y1="318.1" x2="399.77" y2="339.66" xlink:href="#linear-gradient-7"/>
    <linearGradient id="linear-gradient-67" x1="367.64" y1="324.9" x2="423.79" y2="316.6" xlink:href="#linear-gradient-7"/>
    <linearGradient id="linear-gradient-68" x1="368.27" y1="328.68" x2="424.66" y2="320.34" xlink:href="#linear-gradient-7"/>
    <linearGradient id="linear-gradient-69" x1="356.95" y1="338.6" x2="404.83" y2="331.52" xlink:href="#linear-gradient-7"/>
  </defs>
  <g class="cls-27">
    <g id="Layer_1" data-name="Layer 1">
      <g>
        <path class="cls-52" d="m441.04,92.72C338.7-21.87,96.39-28.28,25.14,62.61-14.12,112.69,2.29,187.55,10.38,224.48c14.9,67.97,51.62,111.73,59.65,121.01,19.46,22.52,66.73,77.23,137.85,89.73,121.52,21.37,273.16-87.42,281.56-210.16,4.84-70.76-39.55-122.44-48.39-132.35Z"/>
        <g>
          <g>
            <path class="cls-67" d="m374.97,372.09c-14.64-14.92-33.74-38.93-40.09-71.16-7.3-37.02,8.88-51.05,9.13-93.65.36-60.8-45.5-87.5-27.26-112.9,8.89-12.39,28.61-19.81,44.44-16.68,45.15,8.92,81.17,108.19,43.89,166.23-16.86,26.25-39.54,32.42-47.82,61.3-7.32,25.52,6.1,50.51,17.71,66.87Z"/>
            <g class="cls-58">
              <g class="cls-33">
                <path class="cls-4" d="m349.68,330.05c-1.39-8.1-1.99-16.35-1.8-24.52.44-18.78,5.08-30.74,10.96-45.89,3.82-9.84,8.14-21,12.07-36.13,7.35-28.3,9.2-37.97,8.28-52.04-1.83-27.87-13.65-49.02-20.54-59.15-9.76-14.37-22.47-26.76-37.77-36.83l.36-.44c15.36,10.11,28.12,22.56,37.92,36.99,6.91,10.17,18.78,31.42,20.62,59.4.93,14.14-.93,23.83-8.29,52.19-3.94,15.16-8.27,26.33-12.09,36.18-5.86,15.1-10.48,27.03-10.93,45.73-.19,8.14.41,16.36,1.79,24.42l-.6.08Z"/>
                <path class="cls-4" d="m376.41,152.41l-.2-.41c-8.84-17.7-27.15-24.42-40.96-26.95-14.99-2.74-28.06-1.26-28.19-1.25l-.08-.54c.13-.02,13.29-1.51,28.38,1.25,13.84,2.53,32.17,9.24,41.2,26.85,1.49-1.78,8.06-10.07,11.81-22.08,3.9-12.49,5.46-31.68-9.24-52.18l.51-.29c14.83,20.68,13.25,40.04,9.31,52.64-4.27,13.65-12.15,22.53-12.23,22.61l-.31.35Z"/>
                <path class="cls-4" d="m373.65,215.93c-.27,0-.41,0-.42,0h-.26s-.04-.23-.04-.23c-3.17-19.45-13.79-30.67-22.14-36.66-9.06-6.49-17.47-8.4-17.56-8.42l.15-.53c.08.02,8.61,1.95,17.77,8.5,8.41,6.02,19.1,17.29,22.35,36.79h.08c3.82,0,38.75-.77,55.65-27.68l.53.26c-9.4,14.97-24.27,21.77-35.1,24.85-10.33,2.93-19.04,3.11-21.02,3.11Z"/>
                <path class="cls-4" d="m370.93,257.4c-6.55,0-10.46-1.2-10.51-1.21l-.21-.06v-.19c.27-21.07-25.77-45.6-26.03-45.85l.44-.37c.26.25,26.31,24.78,26.2,46.03,1.19.32,7.47,1.84,16.85.71,9.61-1.16,24.53-5.42,41.06-19.13l.42.4c-16.67,13.82-31.74,18.11-41.44,19.28-2.49.3-4.76.41-6.78.41Z"/>
              </g>
            </g>
          </g>
          <g>
            <path class="cls-2" d="m342.22,352.38c-7.7-10.83-17.6-28.54-14.68-48.8,5.1-35.36,43.46-38.69,61.44-81.28,14.5-34.35-2.81-50.29,18.43-77.49,3.56-4.55,22.06-29.2,45.42-27.33,13.17,1.05,22.03,10.04,23.7,11.73,25.16,25.51,13.27,84.72-20.91,122.62-19.64,21.77-29.75,20.87-67.76,51.94-22.33,18.26-36.97,36.46-45.65,48.61Z"/>
            <g class="cls-37">
              <g class="cls-33">
                <path class="cls-4" d="m344.5,367.92c-6.73-30.29-3.26-53.64,10.3-69.41,6.64-7.72,13.27-11.04,20.29-14.56,7.54-3.78,15.34-7.68,23.38-17.55,7.82-9.6,8.99-16.45,10.49-25.13,1.34-7.81,3.02-17.54,10.12-32.32,6.23-12.96,11.87-20.05,16.86-26.31,5.39-6.77,9.65-12.12,12.63-22.42,4.87-16.83,2.81-35.28-6.11-54.86l.57-.2c8.97,19.68,11.03,38.26,6.13,55.2-3.01,10.4-7.3,15.78-12.73,22.6-4.97,6.24-10.59,13.3-16.79,26.21-7.07,14.72-8.74,24.41-10.08,32.19-1.5,8.75-2.69,15.66-10.6,25.37-8.12,9.97-15.98,13.91-23.58,17.71-6.96,3.49-13.54,6.78-20.11,14.41-13.45,15.64-16.88,38.84-10.19,68.97l-.6.11Z"/>
                <path class="cls-4" d="m433.75,185.92l-.03-.36c-.04-.44-4.37-44.32-27.94-54.26l.26-.49c22.74,9.58,27.78,50.07,28.25,54.34,24.03-8.38,37.9-23.03,45.31-33.87,8.07-11.81,10.43-21.75,10.45-21.85l.6.11c-.02.1-2.41,10.14-10.53,22.02-7.5,10.97-21.57,25.81-45.99,34.23l-.38.13Z"/>
                <path class="cls-4" d="m413.27,225.09c-.15,0-.23,0-.24,0h-.26s-.03-.24-.03-.24c-1.74-11.74-7.8-24.52-12.59-33.18-5.19-9.38-10.02-16.07-10.07-16.13l.51-.29c.05.07,4.9,6.78,10.11,16.19,4.77,8.63,10.82,21.36,12.61,33.11,1.95,0,14.52-.2,30.43-4.64,15.9-4.44,38.49-14.16,55.78-35.22l.49.32c-17.4,21.19-40.12,30.96-56.12,35.43-16.06,4.48-28.75,4.66-30.63,4.66Z"/>
                <path class="cls-4" d="m399.53,282.3c-10.99,0-17.5-1.32-17.64-1.35l-.31-.07.09-.27c8.31-25.11-13.05-53.41-13.27-53.7l.51-.31c.22.28,21.58,28.59,13.44,53.87,3.51.64,35.78,5.87,77.65-10.83l.25.5c-24.97,9.96-46.56,12.15-60.72,12.15Z"/>
              </g>
            </g>
          </g>
          <path class="cls-66" d="m337.06,342.67c5.07-7.39,13.78-18.61,27.41-29.69,24.24-19.71,39.83-19.32,46.8-34.58,7.22-15.79-6.08-23.67,2.99-41.69.76-1.51,10.66-20.51,27.49-21.15,11.77-.45,20.61,8.33,24.76,12.45,16.1,15.98,25.47,46.05,9.72,68.53-14.93,21.32-44.88,25.1-54.41,26.24-16.73,2.01-22.75-1.85-39.56.6-20.44,2.98-35.7,12.21-45.19,19.29Z"/>
        </g>
        <g>
          <g>
            <path class="cls-74" d="m164.35,397.39c7.7-10.83,17.6-28.54,14.68-48.8-5.1-35.36-43.46-38.69-61.44-81.28-14.5-34.35,2.81-50.29-18.43-77.49-3.56-4.55-22.06-29.2-45.42-27.33-13.17,1.05-22.03,10.04-23.7,11.73-25.16,25.51-13.27,84.72,20.91,122.62,19.64,21.77,29.75,20.87,67.76,51.94,22.33,18.26,36.97,36.46,45.65,48.61Z"/>
            <g class="cls-25">
              <g class="cls-33">
                <path class="cls-4" d="m162.07,412.93l-.6-.11c6.69-30.13,3.26-53.33-10.19-68.97-6.56-7.63-13.14-10.93-20.11-14.41-7.6-3.8-15.46-7.74-23.58-17.71-7.9-9.7-9.09-16.61-10.6-25.37-1.34-7.78-3-17.47-10.08-32.19-6.2-12.91-11.83-19.97-16.79-26.21-5.43-6.82-9.72-12.21-12.73-22.6-4.9-16.94-2.84-35.51,6.13-55.2l.57.2c-8.92,19.57-10.97,38.03-6.11,54.86,2.98,10.3,7.24,15.65,12.63,22.42,4.98,6.26,10.63,13.35,16.86,26.31,7.1,14.79,8.77,24.51,10.12,32.32,1.49,8.68,2.67,15.53,10.49,25.13,8.04,9.88,15.84,13.78,23.38,17.55,7.02,3.51,13.65,6.83,20.29,14.56,13.56,15.77,17.03,39.12,10.3,69.41Z"/>
                <path class="cls-4" d="m72.82,230.92l-.38-.13c-24.43-8.42-38.49-23.26-45.99-34.23-8.13-11.89-10.51-21.92-10.53-22.02l.6-.11c.02.1,2.39,10.06,10.47,21.87,7.41,10.83,21.28,25.47,45.3,33.85.47-4.27,5.51-44.76,28.25-54.34l.26.49c-23.58,9.94-27.9,53.81-27.94,54.26l-.03.36Z"/>
                <path class="cls-4" d="m93.3,270.1c-1.88,0-14.57-.18-30.63-4.66-16-4.46-38.72-14.23-56.12-35.43l.49-.32c17.3,21.07,39.9,30.79,55.8,35.23,15.91,4.44,28.46,4.63,30.41,4.64,1.79-11.75,7.84-24.48,12.61-33.11,5.2-9.41,10.06-16.12,10.11-16.19l.51.29c-.05.07-4.89,6.76-10.08,16.14-4.78,8.65-10.85,21.43-12.59,33.17l-.03.23h-.26s-.09,0-.24,0Z"/>
                <path class="cls-4" d="m107.04,327.3c-14.16,0-35.74-2.19-60.72-12.15l.25-.5c41.87,16.7,74.14,11.48,77.65,10.83-8.14-25.29,13.22-53.59,13.44-53.87l.51.31c-.22.28-21.58,28.59-13.27,53.7l.09.27-.31.07c-.15.03-6.66,1.35-17.64,1.35Z"/>
              </g>
            </g>
          </g>
          <path class="cls-24" d="m169.51,387.67c-5.07-7.39-13.78-18.61-27.41-29.69-24.24-19.71-39.83-19.32-46.8-34.58-7.22-15.79,6.08-23.67-2.99-41.69-.76-1.51-10.66-20.51-27.49-21.15-11.77-.45-20.61,8.33-24.76,12.45-16.1,15.98-25.47,46.05-9.72,68.53,14.93,21.32,44.88,25.1,54.41,26.24,16.73,2.01,22.75-1.85,39.56.6,20.44,2.98,35.7,12.21,45.19,19.29Z"/>
        </g>
        <g>
          <path class="cls-61" d="m289.5,145.39c-.11,0-.23.01-.34.01-1.79,0-3.32-1.3-3.5-3.04-3.08-30.86-13.62-60.17-29.67-82.55-14.22-19.83-31.15-31.66-45.29-31.66h-.05c-51.52.1-62.29,113.04-62.39,114.18-.17,1.85-1.86,3.22-3.81,3.06-1.94-.16-3.37-1.79-3.2-3.63.44-4.91,11.47-120.21,69.39-120.32h.06c16.71,0,35.33,12.6,51.09,34.58,16.71,23.3,27.67,53.74,30.86,85.71.18,1.85-1.23,3.49-3.17,3.66Z"/>
          <path class="cls-75" d="m74.55,377.85l67.81,32.78,41.09-120.4-67.7-161.41-19.2,4.49-29.13,231.82c-.66,5.25,2.19,10.33,7.13,12.72Z"/>
          <path class="cls-7" d="m183.46,290.23l-67.7-161.41-11.32,2.65c-1.57,21.55-.88,39.29.19,52.2,4.54,54.96,19.61,70.25,12.31,108.59-6.07,31.88-19.33,36.2-18.17,57.65,1.26,23.36,18.32,42.92,38.61,58.3l5,2.42,41.09-120.4Z"/>
          <polygon class="cls-38" points="115.75 128.82 371.13 141.18 452.29 386.79 142.37 410.63 115.75 128.82"/>
          <g class="cls-11">
            <path class="cls-31" d="m371.13,141.18l-133.18-6.45c-2.25,3.14-5.22,8.26-5.78,14.79-3.28,38.61,86.34,51.11,94.37,98.51,6.11,36.09-31.5,77.72-65.07,96.27-35.36,19.54-59.32,9.65-83.24,31.35-10.51,9.53-16.91,21.46-20.71,33.81l294.76-22.68-81.16-245.61Z"/>
          </g>
          <path class="cls-80" d="m194.08,150.93c-1.6,0-3.04-1.04-3.42-2.59-.72-2.93-17.33-72.05,6.09-105.97,6.71-9.72,16.09-15.66,27.88-17.64,60.55-10.19,97.84,114,99.39,119.29.53,1.79-.56,3.64-2.43,4.14-1.87.5-3.81-.54-4.34-2.32-.36-1.24-37.06-123.66-91.4-114.49-9.94,1.67-17.54,6.49-23.23,14.73-21.77,31.53-5.29,100.05-5.12,100.74.44,1.81-.73,3.61-2.62,4.04-.27.06-.54.09-.81.09Z"/>
          <ellipse class="cls-81" cx="194.11" cy="151.43" rx="9.83" ry="9.39"/>
          <ellipse class="cls-22" cx="322.29" cy="150.56" rx="9.83" ry="9.39"/>
          <path class="cls-48" d="m390.67,259.36l-79.29-68.73c-1.67-1.45-4.06-1.85-6.16-1.04l-42.31,16.42c-3.57,1.38-4.79,5.62-2.49,8.56l69.06,87.9c1.91,2.43,5.5,2.97,8.09,1.21l52.54-35.59c3.06-2.07,3.33-6.31.55-8.72Zm-90.67-44.57c-2.67,1.72-6.88.2-9.4-3.38-2.52-3.58-2.4-7.88.27-9.59,2.67-1.72,6.88-.2,9.4,3.38,2.52,3.58,2.4,7.88-.27,9.59Z"/>
          <path class="cls-52" d="m390.67,258.42l-79.29-68.73c-1.67-1.45-4.06-1.85-6.16-1.04l-42.31,16.42c-3.57,1.38-4.79,5.62-2.49,8.56l69.06,87.9c1.91,2.43,5.5,2.97,8.09,1.21l52.54-35.59c3.06-2.07,3.33-6.31.55-8.72Zm-90.67-44.57c-2.67,1.72-6.88.2-9.4-3.38-2.52-3.58-2.4-7.88.27-9.59,2.67-1.72,6.88-.2,9.4,3.38,2.52,3.58,2.4,7.88-.27,9.59Z"/>
          <path class="cls-1" d="m283.53,196.97c-.25,0-.49-.13-.6-.35-2.75-5.76-6.45-10.73-11.01-14.78-12.49-11.1-28.63-12.84-44.23-14.53-15.53-1.68-30.19-3.27-38.95-14.25-2.22-2.78-5.66-7.81-3.81-10.22.74-.97,2.22-1.42,4.4-1.32.36.01.64.29.62.6-.02.32-.32.57-.68.55-1.16-.05-2.67.05-3.26.82-.98,1.28.51,4.78,3.8,8.91,8.43,10.57,22.81,12.12,38.05,13.77,15.82,1.71,32.18,3.48,44.99,14.86,4.68,4.16,8.48,9.25,11.29,15.15.14.29-.01.63-.34.76-.08.03-.17.05-.25.05Z"/>
          <path class="cls-1" d="m290.3,208.6c-.17,0-.33-.06-.46-.17-.25-.23-.25-.59,0-.82.05-.05,5.48-4.93,5.46-11.45-.02-4-2.06-7.81-6.09-11.32-8.53-7.45-31.16-16.07-51.13-23.68-12.19-4.64-23.7-9.03-31.26-12.81-1.71-.86-3.53-1.67-5.39-2.42-.33-.13-.47-.47-.32-.77.15-.29.53-.42.86-.29,1.9.76,3.74,1.59,5.49,2.47,7.5,3.75,18.98,8.13,31.13,12.76,20.07,7.65,42.82,16.32,51.53,23.92,4.28,3.74,6.46,7.83,6.48,12.16.02,7-5.6,12.05-5.84,12.26-.13.11-.29.17-.46.17Z"/>
          <path class="cls-4" d="m390.67,258.42l-79.29-68.73c-1.67-1.45-4.06-1.85-6.16-1.04l-3.77,1.46c.99,3.2,2.46,6.79,4.71,10.46,11.71,19.09,30.93,18.27,35.37,31.52,3.93,11.74-9.26,18.04-11,34.52-.87,8.23,1.11,19.19,11.74,32.94l47.84-32.41c3.06-2.07,3.33-6.31.55-8.72Z"/>
          <path class="cls-48" d="m319.53,235.03c4.34,6.39,3.44,11.68-.02,13.83-3.64,2.26-8.88.57-12.77-5.16-3.7-5.45-3.9-11.2.18-13.73,4.12-2.56,9.06-.15,12.61,5.07Zm-8.76,5.9c2.17,3.19,4.58,4.97,6.2,3.96,1.58-.98.95-3.53-1.38-6.95-2.11-3.1-4.4-5.08-6.13-4.01-1.66,1.03-.77,3.95,1.31,7Zm17.72,20.52l-7.73-40.07,3.02-1.87,7.69,40.09-2.98,1.85Zm16.88-24.42c4.34,6.39,3.44,11.68-.02,13.83-3.61,2.24-8.84.54-12.77-5.16-3.7-5.45-3.9-11.2.19-13.73,4.12-2.56,9.06-.15,12.6,5.07Zm-8.72,5.88c2.13,3.22,4.55,4.99,6.17,3.99,1.58-.98.95-3.53-1.38-6.95-2.11-3.1-4.36-5.11-6.09-4.03-1.69,1.05-.77,3.95,1.31,7Z"/>
          <path class="cls-48" d="m330.15,283.61c-1.06,0-2.1-.51-2.69-1.44-.9-1.42-.43-3.26,1.06-4.12l38.18-22.13c1.48-.86,3.42-.41,4.32,1.01.9,1.42.43,3.26-1.06,4.12l-38.18,22.13c-.51.3-1.07.44-1.63.44Z"/>
        </g>
        <g>
          <g>
            <path class="cls-14" d="m279.76,411.53c0,3.08-2.46,5.73-5.48,5.89l-212.79,11.55c-4.03.21-8.58-2.82-8.58-6.4v-132.39c0-3.58,4.66-6.6,8.69-6.45l212.68,8.09c3.02.11,5.48,2.72,5.48,5.81v113.89Z"/>
            <path class="cls-42" d="m283.71,411.75c0,3.1-2.47,5.76-5.51,5.92l-215.06,11.33c-4.05.21-7.38-2.56-7.38-6.16v-133.03c0-3.6,3.33-6.42,7.38-6.27l215.06,7.93c3.03.11,5.51,2.74,5.51,5.83v114.44Z"/>
            <polygon class="cls-5" points="283.71 380.56 55.76 390.96 55.76 415.32 283.71 403.42 283.71 380.56"/>
            <g>
              <g class="cls-9">
                <path class="cls-17" d="m123.03,327.53c-.26,15.12-10.89,22.98-22.73,22.93-12.9-.04-23.24-8.84-23-23.28.23-13.73,9.96-23.51,24.42-22.55,14.03.93,21.52,10.56,21.31,22.89Zm-30.63-.29c-.13,7.89,2.77,13.62,8.44,13.71,5.46.09,8.18-4.85,8.32-13.13.13-7.48-2.03-13.38-7.99-13.7-5.8-.31-8.64,5.58-8.77,13.11Zm11.97,48.61l41.09-66.14c.79-1.26,2.33-2.01,3.95-1.9h0c3.01.2,4.79,3.1,3.34,5.46l-40.64,66.12c-.7,1.14-2.01,1.86-3.47,1.92l-.45.02c-3.24.13-5.39-2.95-3.82-5.48Zm70.31-18.64c-.24,14-9.37,21.66-19.5,22.06-10.9.43-19.69-7.3-19.58-20.61.22-12.66,8.51-22.06,20.84-21.77,12,.29,18.43,8.89,18.23,20.31Zm-26.1.92c-.24,7.28,2.23,12.46,7.08,12.34,4.67-.12,7-4.79,7.13-12.44.12-6.92-1.61-12.28-6.71-12.34-5.06-.05-7.38,5.49-7.5,12.45Z"/>
              </g>
              <path class="cls-4" d="m125.02,326.83c-.26,15.12-10.89,22.98-22.73,22.93-12.9-.04-23.24-8.84-23-23.28.23-13.73,9.96-23.51,24.42-22.55,14.03.93,21.52,10.56,21.31,22.89Zm-30.63-.29c-.13,7.89,2.77,13.62,8.44,13.71,5.46.09,8.18-4.85,8.32-13.13.13-7.48-2.03-13.38-7.99-13.7-5.8-.31-8.64,5.58-8.77,13.11Zm11.97,48.61l41.09-66.14c.79-1.26,2.33-2.01,3.95-1.9h0c3.01.2,4.79,3.1,3.34,5.46l-40.64,66.12c-.7,1.14-2.01,1.86-3.47,1.92l-.45.02c-3.24.13-5.39-2.95-3.82-5.48Zm70.31-18.64c-.24,14-9.37,21.66-19.5,22.06-10.9.43-19.69-7.3-19.58-20.61.22-12.66,8.51-22.06,20.84-21.77,12,.29,18.43,8.89,18.23,20.31Zm-26.1.92c-.24,7.28,2.23,12.46,7.08,12.34,4.67-.12,7-4.79,7.13-12.44.12-6.92-1.61-12.28-6.71-12.34-5.06-.05-7.38,5.49-7.5,12.45Z"/>
            </g>
            <path class="cls-13" d="m278.2,291.47l-212.58-7.84c9.59,25.26,23.34,36.58,35.14,42.12,22.47,10.55,38.58.47,57.84,14.13,19.76,14.01,12.24,31.3,33.05,42.95,15.64,8.76,25.73,2.26,41.95,10.17,12.02,5.86,19.52,15.79,24.33,25.74l20.27-1.07c3.03-.16,5.51-2.82,5.51-5.92v-114.44c0-3.1-2.47-5.72-5.51-5.83Z"/>
            <path class="cls-8" d="m280.71,352.01l-5.19-4.38-4.92,4.61-5.19-4.38-4.92,4.61-5.19-4.38-4.92,4.61-5.19-4.38-4.92,4.61-5.19-4.38-4.92,4.61-5.19-4.38-4.92,4.61-5.19-4.38-4.92,4.61-5.19-4.38-4.92,4.61-6.63-5.59c0,2.23,0,69.08,0,69.08,0,0-.27,3.96-5.65,5l91.74-5.98c1.05-.07,2.03-.33,2.91-.74.92-1.06,1.5-2.44,1.5-3.92v-62.54l-2.99,2.81Z"/>
          </g>
          <g>
            <path class="cls-4" d="m295.46,349.72v62.92c0,3.51-3.15,6.43-7.08,6.69l-29.09,1.89-62.86,4.09c5.38-1.04,5.5-5,5.5-5v-69.08l6.76,5.59,3.54-3.26,1.48-1.36,5.2,4.38,4.93-4.61,5.19,4.38,4.92-4.61,5.19,4.38,4.92-4.61,5.19,4.38,4.92-4.61,5.19,4.38,4.92-4.61,5.19,4.38,4.92-4.61,5.19,4.38,4.92-4.61,5.29,4.38,5.67-5.22Z"/>
            <g>
              <path class="cls-48" d="m284.87,386.27l-11.35.45c-.76.03-1.36.59-1.36,1.27v4.63c0,.73.69,1.31,1.51,1.27l11.35-.57c.76-.04,1.35-.59,1.35-1.27v-4.52c0-.72-.68-1.3-1.49-1.27Z"/>
              <path class="cls-48" d="m284.85,395.21l-11.35.57c-.76.04-1.35.59-1.35,1.27v4.83c0,.73.7,1.31,1.52,1.27l11.34-.64c.75-.04,1.34-.6,1.34-1.27v-4.76c0-.73-.69-1.31-1.51-1.27Z"/>
              <path class="cls-48" d="m286.36,373.44v-8.28c0-.72-.67-1.29-1.48-1.27l-11.35.36c-.77.02-1.38.59-1.38,1.27v8.37c0,.72.68,1.3,1.49,1.27l11.34-.45c.76-.03,1.36-.59,1.36-1.27Z"/>
            </g>
            <g>
              <path class="cls-48" d="m261.3,387.21l-46.2,1.85c-.76.03-1.36.59-1.36,1.27v5.21c0,.73.69,1.31,1.51,1.27l46.2-2.32c.76-.04,1.35-.59,1.35-1.27v-4.75c0-.72-.68-1.3-1.49-1.27Z"/>
              <path class="cls-48" d="m261.28,396.4l-46.2,2.31c-.76.04-1.35.59-1.35,1.27v5.22c0,.73.7,1.31,1.52,1.27l46.2-2.62c.75-.04,1.34-.6,1.34-1.27v-4.92c0-.73-.69-1.31-1.51-1.27Z"/>
              <path class="cls-48" d="m262.79,374.38v-8.47c0-.72-.67-1.29-1.48-1.27l-46.2,1.48c-.77.02-1.38.59-1.38,1.27v8.85c0,.72.68,1.3,1.49,1.27l46.2-1.85c.76-.03,1.36-.59,1.36-1.27Z"/>
            </g>
            <path class="cls-12" d="m259.24,421.23l-62.83,4.09c5.38-1.04,5.52-5,5.52-5v-69.08l6.76,5.59,3.54-3.26c2.95,2.38,5.33,6.19,5.99,12.23,2.2,20.12,12.8,18.8,25.32,19.55,12.52.76,18.28,13.63,13.21,23.59-2.27,4.45-1.34,8.94,2.5,12.28Z"/>
          </g>
        </g>
        <g>
          <g>
            <path class="cls-49" d="m49.95,423.59v8.25c0,2.67,18.73,4.83,41.83,4.83s41.83-2.16,41.83-4.83v-8.25H49.95Z"/>
            <path class="cls-64" d="m133.61,423.59c0,2.67-18.73,4.83-41.83,4.83s-41.83-2.16-41.83-4.83,18.73-4.83,41.83-4.83,41.83,2.16,41.83,4.83Z"/>
            <path class="cls-73" d="m91.78,428.75c-20.46,0-41.85-1.74-41.85-5.09,0-.18.07-.51.28-.51s.12.25.12.44c0,2.13,17.02,4.49,41.45,4.49s41.45-2.37,41.45-4.49c0-.18.04-.36.24-.36s.16.25.16.43c0,3.35-21.39,5.09-41.85,5.09Z"/>
            <path class="cls-51" d="m87.82,423.86c.41-.25.85-.5,1.31-.75.46-.25,1.07-.47,1.8-.67.73-.2,1.65-.36,2.76-.48,1.1-.13,2.48-.19,4.13-.2,1.62,0,3.13.04,4.55.14,1.42.1,2.67.25,3.74.44,1.07.2,1.95.44,2.63.72.67.29,1.07.62,1.2.99l4.71.04c.34,0,.64.03.9.07.26.05.39.11.39.18v.34s-6.05-.05-6.05-.05c-.21.42-.75.81-1.62,1.16-.87.35-1.97.65-3.32.91l-2.21-.27c-.2-.03-.36-.06-.49-.1-.13-.04-.19-.09-.19-.13,0-.07.17-.14.51-.23.34-.09.73-.19,1.15-.32.43-.13.85-.27,1.26-.44.41-.17.69-.37.83-.61l-14.29-.13c-.38.25-.8.49-1.26.72-.47.24-1.08.45-1.85.64-.77.19-1.73.34-2.88.46-1.15.12-2.59.18-4.34.19-1.31,0-2.59-.04-3.83-.13-1.25-.09-2.36-.23-3.33-.42-.97-.19-1.76-.42-2.39-.69-.62-.28-.97-.59-1.04-.95l-3.88-.04c-.34,0-.64-.03-.92-.07-.27-.05-.4-.11-.4-.18v-.34s5.3.04,5.3.04c.23-.36.71-.68,1.45-.95.73-.27,1.63-.51,2.69-.72l1.78.22c.54.07.81.15.81.24,0,.05-.11.11-.33.18-.23.07-.49.16-.8.26-.3.1-.6.22-.88.35-.29.14-.5.29-.65.46l13.03.12Zm-13.08.47c.11.23.34.42.7.58.36.16.81.3,1.35.4.54.11,1.14.18,1.82.23.67.05,1.38.07,2.12.07.86,0,1.61-.04,2.25-.1.63-.06,1.2-.15,1.68-.25.48-.11.91-.23,1.26-.37.36-.14.68-.29.97-.46l-12.14-.11Zm31.11-.31c-.11-.23-.37-.43-.77-.6-.4-.17-.92-.32-1.55-.43-.63-.12-1.36-.2-2.2-.26-.83-.06-1.75-.08-2.76-.08-.89,0-1.67.04-2.31.11-.64.07-1.2.16-1.68.27-.47.11-.88.25-1.21.4-.33.15-.64.31-.93.48l13.4.12Z"/>
            <path class="cls-63" d="m91.78,419.29c-18.65,0-38.07,1.46-41.18,4.28.12.1.23.21.34.32,2.62-1.96,18.65-3.94,40.84-3.94s39.05,2.08,41.02,4.09c.1-.11.2-.22.31-.32-2.57-2.92-22.35-4.44-41.33-4.44Z"/>
          </g>
          <g>
            <path class="cls-50" d="m38.32,414.93v8.25c0,2.67,18.73,4.83,41.83,4.83s41.83-2.16,41.83-4.83v-8.25H38.32Z"/>
            <path class="cls-82" d="m121.98,414.93c0,2.67-18.73,4.83-41.83,4.83s-41.83-2.16-41.83-4.83,18.73-4.83,41.83-4.83,41.83,2.16,41.83,4.83Z"/>
            <path class="cls-68" d="m80.15,420.09c-20.46,0-41.85-1.74-41.85-5.09,0-.18.07-.51.28-.51s.12.25.12.44c0,2.13,17.02,4.49,41.45,4.49s41.45-2.37,41.45-4.49c0-.18.04-.36.24-.36s.16.25.16.43c0,3.35-21.39,5.09-41.85,5.09Z"/>
            <path class="cls-51" d="m76.2,415.2c.41-.25.85-.5,1.31-.75.46-.25,1.07-.47,1.8-.67.73-.2,1.65-.36,2.76-.48,1.1-.13,2.48-.19,4.13-.2,1.62,0,3.13.04,4.55.14,1.42.1,2.67.25,3.74.44,1.07.2,1.95.44,2.63.72.67.29,1.07.62,1.2.99l4.71.04c.34,0,.64.03.9.07.26.05.39.11.39.18v.34s-6.05-.05-6.05-.05c-.21.42-.75.81-1.62,1.16-.87.35-1.97.65-3.32.91l-2.21-.27c-.2-.03-.36-.06-.49-.1-.13-.04-.19-.09-.19-.13,0-.07.17-.14.51-.23.34-.09.73-.19,1.15-.32.43-.13.85-.27,1.26-.44.41-.17.69-.37.83-.61l-14.29-.13c-.38.25-.8.49-1.26.72-.47.24-1.08.45-1.85.64-.77.19-1.73.34-2.88.46-1.15.12-2.59.18-4.34.19-1.31,0-2.59-.04-3.83-.13-1.25-.09-2.36-.23-3.33-.42-.97-.19-1.76-.42-2.39-.69-.62-.28-.97-.59-1.04-.95l-3.88-.04c-.34,0-.64-.03-.92-.07-.27-.05-.4-.11-.4-.18v-.34s5.3.04,5.3.04c.23-.36.71-.68,1.45-.95.73-.27,1.63-.51,2.69-.72l1.78.22c.54.07.81.15.81.24,0,.05-.11.11-.33.18-.23.07-.49.16-.8.26-.3.1-.6.22-.88.35-.29.14-.5.29-.65.46l13.03.12Zm-13.08.47c.11.23.34.42.7.58.36.16.81.3,1.35.4.54.11,1.14.18,1.82.23.67.05,1.38.07,2.12.07.86,0,1.61-.04,2.25-.1.63-.06,1.2-.15,1.68-.25.48-.11.91-.23,1.26-.37.36-.14.68-.29.97-.46l-12.14-.11Zm31.11-.31c-.11-.23-.37-.43-.77-.6-.4-.17-.92-.32-1.55-.43-.63-.12-1.36-.2-2.2-.26-.83-.06-1.75-.08-2.76-.08-.89,0-1.67.04-2.31.11-.64.07-1.2.16-1.68.27-.47.11-.88.25-1.21.4-.33.15-.64.31-.93.48l13.4.12Z"/>
            <path class="cls-21" d="m80.15,410.63c-18.65,0-38.07,1.46-41.18,4.28.12.1.23.21.34.32,2.62-1.96,18.65-3.94,40.84-3.94s39.05,2.08,41.02,4.09c.1-.11.2-.22.31-.32-2.57-2.92-22.35-4.44-41.33-4.44Z"/>
          </g>
          <g>
            <path class="cls-71" d="m48.35,406.29v8.25c0,2.67,18.73,4.83,41.83,4.83s41.83-2.16,41.83-4.83v-8.25H48.35Z"/>
            <path class="cls-72" d="m132.01,406.29c0,2.67-18.73,4.83-41.83,4.83s-41.83-2.16-41.83-4.83,18.73-4.83,41.83-4.83,41.83,2.16,41.83,4.83Z"/>
            <path class="cls-43" d="m90.18,411.45c-20.46,0-41.85-1.74-41.85-5.09,0-.18.07-.51.28-.51s.12.25.12.44c0,2.13,17.02,4.49,41.45,4.49s41.45-2.37,41.45-4.49c0-.18.04-.36.24-.36s.16.25.16.43c0,3.35-21.39,5.09-41.85,5.09Z"/>
            <path class="cls-51" d="m86.23,406.56c.41-.25.85-.5,1.31-.75.46-.25,1.07-.47,1.8-.67.73-.2,1.65-.36,2.76-.48,1.1-.13,2.48-.19,4.13-.2,1.62,0,3.13.04,4.55.14,1.42.1,2.67.25,3.74.44,1.07.2,1.95.44,2.63.72.67.29,1.07.62,1.2.99l4.71.04c.34,0,.64.03.9.07.26.05.39.11.39.18v.34s-6.05-.05-6.05-.05c-.21.42-.75.81-1.62,1.16-.87.35-1.97.65-3.32.91l-2.21-.27c-.2-.03-.36-.06-.49-.1-.13-.04-.19-.09-.19-.13,0-.07.17-.14.51-.23.34-.09.73-.19,1.15-.32.43-.13.85-.27,1.26-.44.41-.17.69-.37.83-.61l-14.29-.13c-.38.25-.8.49-1.26.72-.47.24-1.08.45-1.85.64-.77.19-1.73.34-2.88.46-1.15.12-2.59.18-4.34.19-1.31,0-2.59-.04-3.83-.13-1.25-.09-2.36-.23-3.33-.42-.97-.19-1.76-.42-2.39-.69-.62-.28-.97-.59-1.04-.95l-3.88-.04c-.34,0-.64-.03-.92-.07-.27-.05-.4-.11-.4-.18v-.34s5.3.04,5.3.04c.23-.36.71-.68,1.45-.95.73-.27,1.63-.51,2.69-.72l1.78.22c.54.07.81.15.81.24,0,.05-.11.11-.33.18-.23.07-.49.16-.8.26-.3.1-.6.22-.88.35-.29.14-.5.29-.65.46l13.03.12Zm-13.08.47c.11.23.34.42.7.58.36.16.81.3,1.35.4.54.11,1.14.18,1.81.23.68.05,1.38.07,2.12.07.86,0,1.61-.04,2.25-.1.63-.06,1.2-.15,1.68-.25.48-.11.91-.23,1.26-.37.36-.14.68-.29.97-.46l-12.14-.11Zm31.11-.31c-.11-.23-.37-.43-.77-.6-.4-.17-.92-.32-1.55-.43-.63-.12-1.36-.2-2.2-.26-.83-.06-1.75-.08-2.76-.08-.89,0-1.67.04-2.31.11-.64.07-1.2.16-1.68.27-.47.11-.88.25-1.21.4-.33.15-.64.31-.93.48l13.4.12Z"/>
            <path class="cls-30" d="m90.19,401.99c-18.65,0-38.07,1.46-41.18,4.28.12.1.23.21.34.32,2.62-1.96,18.65-3.94,40.84-3.94s39.05,2.08,41.02,4.09c.1-.11.2-.22.31-.32-2.57-2.92-22.35-4.44-41.33-4.44Z"/>
          </g>
          <g>
            <path class="cls-69" d="m54.44,397.63v8.25c0,2.67,18.73,4.83,41.83,4.83s41.83-2.16,41.83-4.83v-8.25H54.44Z"/>
            <ellipse class="cls-59" cx="96.27" cy="397.63" rx="41.83" ry="4.83"/>
            <path class="cls-28" d="m96.27,402.79c-20.46,0-41.85-1.74-41.85-5.09,0-.18.07-.51.28-.51s.12.25.12.44c0,2.13,17.02,4.49,41.45,4.49s41.45-2.37,41.45-4.49c0-.18.04-.36.24-.36s.16.25.16.43c0,3.35-21.39,5.09-41.85,5.09Z"/>
            <path class="cls-51" d="m92.32,397.9c.41-.25.85-.5,1.31-.75.46-.25,1.07-.47,1.8-.67.73-.2,1.65-.36,2.76-.48,1.1-.13,2.48-.19,4.13-.2,1.62,0,3.13.04,4.55.14,1.42.1,2.67.25,3.74.44,1.07.2,1.95.44,2.63.72.67.29,1.07.62,1.2.99l4.71.04c.34,0,.64.03.9.07.26.05.39.11.39.18v.34s-6.05-.05-6.05-.05c-.21.42-.75.81-1.62,1.16-.87.35-1.97.65-3.32.91l-2.21-.27c-.2-.03-.36-.06-.49-.1-.13-.04-.19-.09-.19-.13,0-.07.17-.14.51-.23.34-.09.73-.19,1.15-.32.43-.13.85-.27,1.26-.44.41-.17.69-.37.83-.61l-14.29-.13c-.38.25-.8.49-1.26.72-.47.24-1.08.45-1.85.64-.77.19-1.73.34-2.88.46-1.15.12-2.59.18-4.34.19-1.31,0-2.59-.04-3.83-.13-1.25-.09-2.36-.23-3.33-.42-.97-.19-1.76-.42-2.39-.69-.62-.28-.97-.59-1.04-.95l-3.88-.04c-.34,0-.64-.03-.92-.07-.27-.05-.4-.11-.4-.18v-.34s5.3.04,5.3.04c.23-.36.71-.68,1.45-.95.73-.27,1.63-.51,2.69-.72l1.78.22c.54.07.81.15.81.24,0,.05-.11.11-.33.18-.23.07-.49.16-.8.26-.3.1-.6.22-.88.35-.29.14-.5.29-.65.46l13.03.12Zm-13.08.47c.11.23.34.42.7.58.36.16.81.3,1.35.4.54.11,1.14.18,1.82.23.67.05,1.38.07,2.12.07.86,0,1.61-.04,2.25-.1.63-.06,1.2-.15,1.68-.25.48-.11.91-.23,1.26-.37.36-.14.68-.29.97-.46l-12.14-.11Zm31.11-.31c-.11-.23-.37-.43-.77-.6-.4-.17-.92-.32-1.55-.43-.63-.12-1.36-.2-2.2-.26-.83-.06-1.75-.08-2.76-.08-.89,0-1.67.04-2.31.11-.64.07-1.2.16-1.68.27-.47.11-.88.25-1.21.4-.33.15-.64.31-.93.48l13.4.12Z"/>
            <path class="cls-23" d="m96.28,393.32c-18.65,0-38.07,1.46-41.18,4.28.12.1.23.21.34.32,2.62-1.96,18.65-3.94,40.84-3.94s39.05,2.08,41.02,4.09c.1-.11.2-.22.31-.32-2.57-2.92-22.35-4.44-41.33-4.44Z"/>
          </g>
          <g>
            <path class="cls-41" d="m49.95,388.28v8.25c0,2.67,18.73,4.83,41.83,4.83s41.83-2.16,41.83-4.83v-8.25H49.95Z"/>
            <path class="cls-70" d="m133.61,388.28c0,2.67-18.73,4.83-41.83,4.83s-41.83-2.16-41.83-4.83,18.73-4.83,41.83-4.83,41.83,2.16,41.83,4.83Z"/>
            <path class="cls-36" d="m91.78,393.44c-20.46,0-41.85-1.74-41.85-5.09,0-.18.07-.51.28-.51s.12.25.12.44c0,2.13,17.02,4.49,41.45,4.49s41.45-2.37,41.45-4.49c0-.18.04-.36.24-.36s.16.25.16.43c0,3.35-21.39,5.09-41.85,5.09Z"/>
            <path class="cls-51" d="m87.82,388.55c.41-.25.85-.5,1.31-.75.46-.25,1.07-.47,1.8-.67.73-.2,1.65-.36,2.76-.48,1.1-.13,2.48-.19,4.13-.2,1.62,0,3.13.04,4.55.14,1.42.1,2.67.25,3.74.44,1.07.2,1.95.44,2.63.72.67.29,1.07.62,1.2.99l4.71.04c.34,0,.64.03.9.07.26.05.39.11.39.18v.34s-6.05-.05-6.05-.05c-.21.42-.75.81-1.62,1.16-.87.35-1.97.65-3.32.91l-2.21-.27c-.2-.03-.36-.06-.49-.1-.13-.04-.19-.09-.19-.13,0-.07.17-.14.51-.23.34-.09.73-.19,1.15-.32.43-.13.85-.27,1.26-.44.41-.17.69-.37.83-.61l-14.29-.13c-.38.25-.8.49-1.26.72-.47.24-1.08.45-1.85.64-.77.19-1.73.34-2.88.46-1.15.12-2.59.18-4.34.19-1.31,0-2.59-.04-3.83-.13-1.25-.09-2.36-.23-3.33-.42-.97-.19-1.76-.42-2.39-.69-.62-.28-.97-.59-1.04-.95l-3.88-.04c-.34,0-.64-.03-.92-.07-.27-.05-.4-.11-.4-.18v-.34s5.3.04,5.3.04c.23-.36.71-.68,1.45-.95.73-.27,1.63-.51,2.69-.72l1.78.22c.54.07.81.15.81.24,0,.05-.11.11-.33.18-.23.07-.49.16-.8.26-.3.1-.6.22-.88.35-.29.14-.5.29-.65.46l13.03.12Zm-13.08.47c.11.23.34.42.7.58.36.16.81.3,1.35.4.54.11,1.14.18,1.82.23.67.05,1.38.07,2.12.07.86,0,1.61-.04,2.25-.1.63-.06,1.2-.15,1.68-.25.48-.11.91-.23,1.26-.37.36-.14.68-.29.97-.46l-12.14-.11Zm31.11-.31c-.11-.23-.37-.43-.77-.6-.4-.17-.92-.32-1.55-.43-.63-.12-1.36-.2-2.2-.26-.83-.06-1.75-.08-2.76-.08-.89,0-1.67.04-2.31.11-.64.07-1.2.16-1.68.27-.47.11-.88.25-1.21.4-.33.15-.64.31-.93.48l13.4.12Z"/>
            <path class="cls-19" d="m91.78,383.98c-18.65,0-38.07,1.46-41.18,4.28.12.1.23.21.34.32,2.62-1.96,18.65-3.94,40.84-3.94s39.05,2.08,41.02,4.09c.1-.11.2-.22.31-.32-2.57-2.92-22.35-4.44-41.33-4.44Z"/>
          </g>
          <g>
            <path class="cls-47" d="m38.32,379.62v8.25c0,2.67,18.73,4.83,41.83,4.83s41.83-2.16,41.83-4.83v-8.25H38.32Z"/>
            <ellipse class="cls-65" cx="80.15" cy="379.62" rx="41.83" ry="4.83"/>
            <path class="cls-6" d="m80.15,384.77c-20.46,0-41.85-1.74-41.85-5.09,0-.18.07-.51.28-.51s.12.25.12.44c0,2.13,17.02,4.49,41.45,4.49s41.45-2.37,41.45-4.49c0-.18.04-.36.24-.36s.16.25.16.43c0,3.35-21.39,5.09-41.85,5.09Z"/>
            <path class="cls-51" d="m76.2,379.89c.41-.25.85-.5,1.31-.75.46-.25,1.07-.47,1.8-.67.73-.2,1.65-.36,2.76-.48,1.1-.13,2.48-.19,4.13-.2,1.62,0,3.13.04,4.55.14,1.42.1,2.67.25,3.74.44,1.07.2,1.95.44,2.63.72.67.29,1.07.62,1.2.99l4.71.04c.34,0,.64.03.9.07.26.05.39.11.39.18v.34s-6.05-.05-6.05-.05c-.21.42-.75.81-1.62,1.16-.87.35-1.97.65-3.32.91l-2.21-.27c-.2-.03-.36-.06-.49-.1-.13-.04-.19-.09-.19-.13,0-.07.17-.14.51-.23.34-.09.73-.19,1.15-.32.43-.13.85-.27,1.26-.44.41-.17.69-.37.83-.61l-14.29-.13c-.38.25-.8.49-1.26.72-.47.24-1.08.45-1.85.64-.77.19-1.73.34-2.88.46-1.15.12-2.59.18-4.34.19-1.31,0-2.59-.04-3.83-.13-1.25-.09-2.36-.23-3.33-.42-.97-.19-1.76-.42-2.39-.69-.62-.28-.97-.59-1.04-.95l-3.88-.04c-.34,0-.64-.03-.92-.07-.27-.05-.4-.11-.4-.18v-.34s5.3.04,5.3.04c.23-.36.71-.68,1.45-.95.73-.27,1.63-.51,2.69-.72l1.78.22c.54.07.81.15.81.24,0,.05-.11.11-.33.18-.23.07-.49.16-.8.26-.3.1-.6.22-.88.35-.29.14-.5.29-.65.46l13.03.12Zm-13.08.47c.11.23.34.42.7.58.36.16.81.3,1.35.4.54.11,1.14.18,1.82.23.67.05,1.38.07,2.12.07.86,0,1.61-.04,2.25-.1.63-.06,1.2-.15,1.68-.25.48-.11.91-.23,1.26-.37.36-.14.68-.29.97-.46l-12.14-.11Zm31.11-.31c-.11-.23-.37-.43-.77-.6-.4-.17-.92-.32-1.55-.43-.63-.12-1.36-.2-2.2-.26-.83-.06-1.75-.08-2.76-.08-.89,0-1.67.04-2.31.11-.64.07-1.2.16-1.68.27-.47.11-.88.25-1.21.4-.33.15-.64.31-.93.48l13.4.12Z"/>
            <path class="cls-76" d="m80.15,375.31c-18.65,0-38.07,1.46-41.18,4.28.12.1.23.21.34.32,2.62-1.96,18.65-3.94,40.84-3.94s39.05,2.08,41.02,4.09c.1-.11.2-.22.31-.32-2.57-2.92-22.35-4.44-41.33-4.44Z"/>
          </g>
          <g>
            <path class="cls-56" d="m48.35,370.98v8.25c0,2.67,18.73,4.83,41.83,4.83s41.83-2.16,41.83-4.83v-8.25H48.35Z"/>
            <ellipse class="cls-79" cx="90.18" cy="370.98" rx="41.83" ry="4.83"/>
            <path class="cls-78" d="m90.18,376.14c-20.46,0-41.85-1.74-41.85-5.09,0-.18.07-.51.28-.51s.12.25.12.44c0,2.13,17.02,4.49,41.45,4.49s41.45-2.37,41.45-4.49c0-.18.04-.36.24-.36s.16.25.16.43c0,3.35-21.39,5.09-41.85,5.09Z"/>
            <path class="cls-51" d="m86.23,371.25c.41-.25.85-.5,1.31-.75.46-.25,1.07-.47,1.8-.67.73-.2,1.65-.36,2.76-.48,1.1-.13,2.48-.19,4.13-.2,1.62,0,3.13.04,4.55.14,1.42.1,2.67.25,3.74.44,1.07.2,1.95.44,2.63.72.67.29,1.07.62,1.2.99l4.71.04c.34,0,.64.03.9.07.26.05.39.11.39.18v.34s-6.05-.05-6.05-.05c-.21.42-.75.81-1.62,1.16-.87.35-1.97.65-3.32.91l-2.21-.27c-.2-.03-.36-.06-.49-.1-.13-.04-.19-.09-.19-.13,0-.07.17-.14.51-.23.34-.09.73-.19,1.15-.32.43-.13.85-.27,1.26-.44.41-.17.69-.37.83-.61l-14.29-.13c-.38.25-.8.49-1.26.72-.47.24-1.08.45-1.85.64-.77.19-1.73.34-2.88.46-1.15.12-2.59.18-4.34.19-1.31,0-2.59-.04-3.83-.13-1.25-.09-2.36-.23-3.33-.42-.97-.19-1.76-.42-2.39-.69-.62-.28-.97-.59-1.04-.95l-3.88-.04c-.34,0-.64-.03-.92-.07-.27-.05-.4-.11-.4-.18v-.34s5.3.04,5.3.04c.23-.36.71-.68,1.45-.95.73-.27,1.63-.51,2.69-.72l1.78.22c.54.07.81.15.81.24,0,.05-.11.11-.33.18-.23.07-.49.16-.8.26-.3.1-.6.22-.88.35-.29.14-.5.29-.65.46l13.03.12Zm-13.08.47c.11.23.34.42.7.58.36.16.81.3,1.35.4.54.11,1.14.18,1.81.23.68.05,1.38.07,2.12.07.86,0,1.61-.04,2.25-.1.63-.06,1.2-.15,1.68-.25.48-.11.91-.23,1.26-.37.36-.14.68-.29.97-.46l-12.14-.11Zm31.11-.31c-.11-.23-.37-.43-.77-.6-.4-.17-.92-.32-1.55-.43-.63-.12-1.36-.2-2.2-.26-.83-.06-1.75-.08-2.76-.08-.89,0-1.67.04-2.31.11-.64.07-1.2.16-1.68.27-.47.11-.88.25-1.21.4-.33.15-.64.31-.93.48l13.4.12Z"/>
            <path class="cls-29" d="m90.19,366.67c-18.65,0-38.07,1.46-41.18,4.28.12.1.23.21.34.32,2.62-1.96,18.65-3.94,40.84-3.94s39.05,2.08,41.02,4.09c.1-.11.2-.22.31-.32-2.57-2.92-22.35-4.44-41.33-4.44Z"/>
          </g>
          <g>
            <path class="cls-40" d="m43.14,362.31v8.25c0,2.67,18.73,4.83,41.83,4.83s41.83-2.16,41.83-4.83v-8.25H43.14Z"/>
            <ellipse class="cls-32" cx="84.96" cy="362.31" rx="41.83" ry="4.83"/>
            <path class="cls-3" d="m84.96,367.47c-20.46,0-41.85-1.74-41.85-5.09,0-.18.07-.51.28-.51s.12.25.12.44c0,2.13,17.02,4.49,41.45,4.49s41.45-2.37,41.45-4.49c0-.18.04-.36.24-.36s.16.25.16.43c0,3.35-21.39,5.09-41.85,5.09Z"/>
            <path class="cls-51" d="m81.01,362.58c.41-.25.85-.5,1.31-.75.46-.25,1.07-.47,1.8-.67.73-.2,1.65-.36,2.76-.48,1.1-.13,2.48-.19,4.13-.2,1.62,0,3.13.04,4.55.14,1.42.1,2.67.25,3.74.44,1.07.2,1.95.44,2.63.72.67.29,1.07.62,1.2.99l4.71.04c.34,0,.64.03.9.07.26.05.39.11.39.18v.34s-6.05-.05-6.05-.05c-.21.42-.75.81-1.62,1.16-.87.35-1.97.65-3.32.91l-2.21-.27c-.2-.03-.36-.06-.49-.1-.13-.04-.19-.09-.19-.13,0-.07.17-.14.51-.23.34-.09.73-.19,1.15-.32.43-.13.85-.27,1.26-.44.41-.17.69-.37.83-.61l-14.29-.13c-.38.25-.8.49-1.26.72-.47.24-1.08.45-1.85.64-.77.19-1.73.34-2.88.46-1.15.12-2.59.18-4.34.19-1.31,0-2.59-.04-3.83-.13-1.25-.09-2.36-.23-3.33-.42-.97-.19-1.76-.42-2.39-.69-.62-.28-.97-.59-1.04-.95l-3.88-.04c-.34,0-.64-.03-.92-.07-.27-.05-.4-.11-.4-.18v-.34s5.3.04,5.3.04c.23-.36.71-.68,1.45-.95.73-.27,1.63-.51,2.69-.72l1.78.22c.54.07.81.15.81.24,0,.05-.11.11-.33.18-.23.07-.49.16-.8.26-.3.1-.6.22-.88.35-.29.14-.5.29-.65.46l13.03.12Zm-13.08.47c.11.23.34.42.7.58.36.16.81.3,1.35.4.54.11,1.14.18,1.82.23.67.05,1.38.07,2.12.07.86,0,1.61-.04,2.25-.1.63-.06,1.2-.15,1.68-.25.48-.11.91-.23,1.26-.37.36-.14.68-.29.97-.46l-12.14-.11Zm31.11-.31c-.11-.23-.37-.43-.77-.6-.4-.17-.92-.32-1.55-.43-.63-.12-1.36-.2-2.2-.26-.83-.06-1.75-.08-2.76-.08-.89,0-1.67.04-2.31.11-.64.07-1.2.16-1.68.27-.47.11-.88.25-1.21.4-.33.15-.64.31-.93.48l13.4.12Z"/>
            <path class="cls-20" d="m84.97,358.01c-18.65,0-38.07,1.46-41.18,4.28.12.1.23.21.34.32,2.62-1.96,18.65-3.94,40.84-3.94s39.05,2.08,41.02,4.09c.1-.11.2-.22.31-.32-2.57-2.92-22.35-4.44-41.33-4.44Z"/>
          </g>
          <g>
            <path class="cls-26" d="m138.69,368.13l-7.56,4.78c-2.44,1.54,6.43,16.36,19.82,33.1,13.39,16.74,26.23,29.05,28.67,27.51l7.56-4.78-48.49-60.61Z"/>
            <path class="cls-55" d="m187.18,428.74c-2.44,1.54-15.28-10.77-28.67-27.51-13.39-16.74-22.26-31.56-19.82-33.1,2.44-1.54,15.28,10.77,28.67,27.51,13.39,16.74,22.26,31.56,19.82,33.1Z"/>
            <path class="cls-57" d="m158.21,401.42c-11.86-14.82-22.67-31.33-19.6-33.27.17-.11.51-.24.63-.09.12.15-.16.23-.33.34-1.95,1.23,5.75,14.94,19.91,32.64,14.16,17.7,26.2,28.66,28.15,27.43.17-.11.35-.18.47-.03.12.15-.13.26-.3.36-3.07,1.94-17.06-12.55-28.92-27.37Z"/>
            <path class="cls-51" d="m160.4,395.72c.47.15.95.32,1.45.52.49.19,1.05.5,1.65.92.61.42,1.29.99,2.04,1.72.75.73,1.61,1.69,2.58,2.88.94,1.17,1.78,2.29,2.51,3.38.73,1.08,1.32,2.07,1.77,2.97.44.89.73,1.67.86,2.32.13.65.05,1.14-.21,1.44l2.69,3.44c.2.25.35.48.46.7.11.22.13.35.06.39l-.31.2-3.46-4.42c-.51.09-1.18-.08-2-.5-.82-.42-1.74-1.05-2.76-1.88l-1.03-1.76c-.09-.16-.15-.3-.19-.41-.04-.12-.03-.19.01-.22.06-.04.23.04.5.24.28.2.6.42.96.65.36.24.74.46,1.14.66.39.2.74.28,1.04.25l-8.17-10.43c-.44-.13-.91-.3-1.4-.49-.49-.2-1.04-.52-1.66-.97-.62-.45-1.32-1.05-2.09-1.82-.78-.77-1.67-1.77-2.69-3.03-.76-.95-1.46-1.9-2.1-2.85-.64-.96-1.15-1.84-1.54-2.66-.39-.81-.64-1.52-.75-2.13-.11-.61-.02-1.04.27-1.3l-2.21-2.83c-.2-.25-.35-.48-.47-.71-.11-.22-.14-.35-.07-.4l.31-.2,3.03,3.87c.47-.04,1.04.12,1.71.5.67.38,1.41.89,2.22,1.53l.83,1.41c.25.43.33.67.25.72-.04.03-.16-.02-.36-.14-.2-.12-.43-.26-.7-.43-.27-.16-.55-.31-.84-.43-.29-.13-.56-.2-.8-.2l7.45,9.51Zm-8.01-9.2c-.15.21-.19.49-.13.85.06.36.19.76.41,1.21.22.45.5.94.84,1.45.35.52.73,1.04,1.16,1.57.5.62.97,1.14,1.39,1.57.43.42.83.78,1.21,1.07.38.29.74.52,1.07.7.34.18.66.32.98.43l-6.94-8.86Zm18.32,22.36c.15-.21.18-.51.11-.91-.08-.39-.24-.85-.5-1.37-.26-.52-.6-1.1-1.03-1.74-.43-.64-.94-1.32-1.53-2.05-.52-.65-1-1.19-1.44-1.61-.43-.43-.84-.78-1.22-1.06-.38-.28-.73-.49-1.06-.64-.33-.15-.66-.28-.98-.39l7.66,9.78Z"/>
            <path class="cls-18" d="m166.88,395.94c-10.81-13.51-23.4-26.73-27.79-27.35-.02.15-.05.29-.09.43,3.32.76,14.42,11.23,27.28,27.3,13.19,16.48,20.73,29.49,20.03,32.09.16,0,.31.02.47.04,1.19-3.55-8.89-18.76-19.89-32.52Z"/>
          </g>
        </g>
        <g>
          <path class="cls-77" d="m383.29,412.21l-3.79.26c-.98.07-1.97.03-2.94-.11l-15.01-2.17-.25-.03-17.45-2.53h-.11s-13.67-1.97-13.67-1.97v-68.38h13.75s.03,0,.03,0l17.45.77.26.12,21.1.72.62,73.34Z"/>
          <path class="cls-15" d="m436.37,341.62v63.83c0,2.28-1.97,4.15-4.53,4.28l-50.07,2.65c-2.03.11-3.75-1.39-3.75-3.24v-66.5c0-1.86,1.64-3.4,3.67-3.45l50.43-1.25c2.34-.06,4.25,1.59,4.25,3.68Z"/>
          <polygon class="cls-39" points="330.19 337.27 378.02 339.28 432.12 337.94 376.66 336.34 330.19 337.27"/>
          <path class="cls-10" d="m432.05,337.95l-39.5.98c-2.25.06-4.08,1.74-4.08,3.78,0,3.41.64,6.93,2.33,10.32,5.62,11.32,18.19,11.74,20.81,22.13,2.18,8.66-5.54,12.38-6.35,23.45-.21,2.91.07,6.03,1.04,9.39.51,1.76,2.36,2.97,4.37,2.86l21.74-1.15c2.23-.12,3.96-1.75,3.96-3.74v-64.27c0-2.12-1.94-3.8-4.32-3.74Z"/>
          <polygon class="cls-44" points="395.57 411.65 414.14 410.67 414.14 338.39 395.57 338.85 395.57 411.65"/>
          <polygon class="cls-46" points="396.41 411.61 414.14 410.67 414.14 338.39 396.41 338.83 396.41 411.61"/>
          <polygon class="cls-34" points="361.05 338.25 361.05 410.19 344.05 407.63 344.05 337.84 349.46 337.75 361.05 338.25"/>
          <polygon class="cls-54" points="362.8 336.62 414.55 339.23 395.94 339.23 350.7 336.86 362.8 336.62"/>
          <g>
            <path class="cls-60" d="m387.98,334.41c1.21-6.56,2.09-11.36,6.91-15.79,2.03-1.87,4.25-3.91,7.89-4.45,4.19-.62,9.53.84,10.99,3.88,1.39,2.89-1.88,4.77-.49,8.08,1.4,3.33,5.47,3.26,5.92,5.95.38,2.28-2.12,4.87-4.65,6.08-4.36,2.09-6.84-.85-15.36-.38-5.87.33-9.26,1.98-10.85.31-.76-.79-.68-1.9-.35-3.7Z"/>
            <g class="cls-11">
              <path class="cls-62" d="m411.31,331.84c-5.26-1.79-7.96-5.68-10.29-4.76-2.07.82-.81,4.24-3.24,7.02-2.22,2.54-6.3,3.14-9.92,3.15.09.33.24.61.48.86,1.59,1.67,4.98.01,10.85-.31,8.52-.48,11,2.47,15.36.38,2.32-1.11,4.61-3.38,4.68-5.51-2.46.23-5.19.11-7.92-.82Z"/>
            </g>
          </g>
          <g>
            <path class="cls-35" d="m356.2,318.18c3.54-2.48,7.27.29,11.63-2.44,4.41-2.76,3.13-7.2,6.55-8.46,3.98-1.46,9.87,3,12.69,5.83,7.16,7.19,10.52,19.95,4.86,24.44-2.12,1.68-8.14.99-20.08-.47-13.65-1.67-15.61-2.86-16.92-4.42-3.52-4.21-2.74-11.66,1.27-14.47Z"/>
            <g class="cls-11">
              <path class="cls-45" d="m378.61,323.57c-1.97-.55-2.86,1.45-6.91,2.26-.74.15-7.87,1.47-11.7-2.51-1.52-1.58-2.23-3.7-2.15-5.95-.56.17-1.11.43-1.66.81-4.01,2.81-4.79,10.27-1.27,14.47,1.31,1.56,3.27,2.75,16.92,4.42,11.94,1.46,17.96,2.15,20.08.47.29-.23.54-.48.78-.75-2.86-.08-5.87-.7-8.04-2.57-4.19-3.62-2.72-9.71-6.06-10.65Z"/>
            </g>
          </g>
          <polygon class="cls-16" points="379.45 337.97 361.3 338.58 343.83 337.84 349.48 337.75 374.21 337.36 379.45 337.97"/>
        </g>
      </g>
    </g>
  </g>
</svg>